<?xml version="1.0" encoding="UTF-8" standalone="no"?>
<!DOCTYPE svg PUBLIC "-//W3C//DTD SVG 1.1//EN"
 "http://www.w3.org/Graphics/SVG/1.1/DTD/svg11.dtd">
<!-- Generated by graphviz version 7.0.0 (0)
 -->
<!-- Title: G Pages: 1 -->
<svg width="1104pt" height="438pt"
 viewBox="0.00 0.00 1104.00 438.00" xmlns="http://www.w3.org/2000/svg" xmlns:xlink="http://www.w3.org/1999/xlink">
<g id="graph0" class="graph" transform="scale(1 1) rotate(0) translate(4 434)">
<title>G</title>
<polygon fill="white" stroke="none" points="-4,4 -4,-434 1100,-434 1100,4 -4,4"/>
<!-- decl0 -->
<g id="node1" class="node">
<title>decl0</title>
<polygon fill="none" stroke="black" points="529.5,-345 529.5,-370 773.5,-370 773.5,-345 529.5,-345"/>
<text text-anchor="start" x="534.5" y="-353.8" font-family="Times,serif" font-size="14.00">enum MyGame.Sample.Color : int8</text>
<polygon fill="none" stroke="black" points="529.5,-320 529.5,-345 667.5,-345 667.5,-320 529.5,-320"/>
<text text-anchor="start" x="586" y="-328.8" font-family="Times,serif" font-size="14.00">Red</text>
<polygon fill="none" stroke="black" points="667.5,-320 667.5,-345 773.5,-345 773.5,-320 667.5,-320"/>
<text text-anchor="start" x="716.5" y="-328.8" font-family="Times,serif" font-size="14.00">0</text>
<polygon fill="none" stroke="black" points="529.5,-295 529.5,-320 667.5,-320 667.5,-295 529.5,-295"/>
<text text-anchor="start" x="578" y="-303.8" font-family="Times,serif" font-size="14.00">Green</text>
<polygon fill="none" stroke="black" points="667.5,-295 667.5,-320 773.5,-320 773.5,-295 667.5,-295"/>
<text text-anchor="start" x="716.5" y="-303.8" font-family="Times,serif" font-size="14.00">1</text>
<polygon fill="none" stroke="black" points="529.5,-270 529.5,-295 667.5,-295 667.5,-270 529.5,-270"/>
<text text-anchor="start" x="583" y="-278.8" font-family="Times,serif" font-size="14.00">Blue</text>
<polygon fill="none" stroke="black" points="667.5,-270 667.5,-295 773.5,-295 773.5,-270 667.5,-270"/>
<text text-anchor="start" x="716.5" y="-278.8" font-family="Times,serif" font-size="14.00">2</text>
</g>
<!-- decl1 -->
<g id="node2" class="node">
<title>decl1</title>
<polygon fill="none" stroke="black" points="528.5,-29 528.5,-54 775.5,-54 775.5,-29 528.5,-29"/>
<text text-anchor="start" x="534" y="-37.8" font-family="Times,serif" font-size="14.00">union MyGame.Sample.Equipment</text>
<polygon fill="none" stroke="black" points="528.5,-4 528.5,-29 593.5,-29 593.5,-4 528.5,-4"/>
<text text-anchor="start" x="533.5" y="-12.8" font-family="Times,serif" font-size="14.00">Weapon</text>
<polygon fill="none" stroke="black" points="593.5,-4 593.5,-29 775.5,-29 775.5,-4 593.5,-4"/>
<text text-anchor="start" x="598.5" y="-12.8" font-family="Times,serif" font-size="14.00">MyGame.Sample.Weapon</text>
</g>
<!-- decl4 -->
<g id="node3" class="node">
<title>decl4</title>
<polygon fill="none" stroke="black" points="827.5,-114 827.5,-139 1088.5,-139 1088.5,-114 827.5,-114"/>
<text text-anchor="start" x="853.5" y="-122.8" font-family="Times,serif" font-size="14.00">table MyGame.Sample.Weapon</text>
<polygon fill="none" stroke="black" points="827.5,-89 827.5,-114 845.5,-114 845.5,-89 827.5,-89"/>
<text text-anchor="start" x="832.5" y="-97.8" font-family="Times,serif" font-size="14.00">0</text>
<polygon fill="none" stroke="black" points="845.5,-89 845.5,-114 909.5,-114 909.5,-89 845.5,-89"/>
<text text-anchor="start" x="858" y="-97.8" font-family="Times,serif" font-size="14.00">name</text>
<polygon fill="none" stroke="black" points="909.5,-89 909.5,-114 1018.5,-114 1018.5,-89 909.5,-89"/>
<text text-anchor="start" x="914.5" y="-97.8" font-family="Times,serif" font-size="14.00">string (4 bytes)</text>
<polygon fill="none" stroke="black" points="1018.5,-89 1018.5,-114 1088.5,-114 1088.5,-89 1018.5,-89"/>
<text text-anchor="start" x="1025" y="-97.8" font-family="Times,serif" font-size="14.00">optional</text>
<polygon fill="none" stroke="black" points="827.5,-64 827.5,-89 845.5,-89 845.5,-64 827.5,-64"/>
<text text-anchor="start" x="832.5" y="-72.8" font-family="Times,serif" font-size="14.00">1</text>
<polygon fill="none" stroke="black" points="845.5,-64 845.5,-89 909.5,-89 909.5,-64 845.5,-64"/>
<text text-anchor="start" x="850.5" y="-72.8" font-family="Times,serif" font-size="14.00">damage</text>
<polygon fill="none" stroke="black" points="909.5,-64 909.5,-89 1018.5,-89 1018.5,-64 909.5,-64"/>
<text text-anchor="start" x="917" y="-72.8" font-family="Times,serif" font-size="14.00">int16 (2 bytes)</text>
<polygon fill="none" stroke="black" points="1018.5,-64 1018.5,-89 1088.5,-89 1088.5,-64 1018.5,-64"/>
<text text-anchor="start" x="1023.5" y="-72.8" font-family="Times,serif" font-size="14.00">default 0</text>
</g>
<!-- decl1&#45;&gt;decl4 -->
<g id="edge1" class="edge">
<title>decl1:e&#45;&gt;decl4:name</title>
<path fill="none" stroke="#f411d2" d="M776.5,-16C826.17,-16 781.19,-109.54 815.33,-124.88"/>
<polygon fill="#f411d2" stroke="#f411d2" points="814.54,-128.29 825.01,-126.72 815.84,-121.42 814.54,-128.29"/>
</g>
<!-- decl2 -->
<g id="node4" class="node">
<title>decl2</title>
<polygon fill="none" stroke="black" points="575.5,-180 575.5,-205 728.5,-205 728.5,-180 575.5,-180"/>
<text text-anchor="start" x="615.5" y="-188.8" font-family="Times,serif" font-size="14.00">struct Vec3</text>
<polygon fill="none" stroke="black" points="575.5,-155 575.5,-180 728.5,-180 728.5,-155 575.5,-155"/>
<text text-anchor="start" x="582" y="-163.8" font-family="Times,serif" font-size="14.00">size=12, alignment=4</text>
<polygon fill="none" stroke="black" points="575.5,-130 575.5,-155 593.5,-155 593.5,-130 575.5,-130"/>
<text text-anchor="start" x="580.5" y="-138.8" font-family="Times,serif" font-size="14.00">0</text>
<polygon fill="none" stroke="black" points="593.5,-130 593.5,-155 612.5,-155 612.5,-130 593.5,-130"/>
<text text-anchor="start" x="598.5" y="-138.8" font-family="Times,serif" font-size="14.00">x</text>
<polygon fill="none" stroke="black" points="612.5,-130 612.5,-155 728.5,-155 728.5,-130 612.5,-130"/>
<text text-anchor="start" x="617.5" y="-138.8" font-family="Times,serif" font-size="14.00">float32 (4 bytes)</text>
<polygon fill="none" stroke="black" points="575.5,-105 575.5,-130 593.5,-130 593.5,-105 575.5,-105"/>
<text text-anchor="start" x="580.5" y="-113.8" font-family="Times,serif" font-size="14.00">4</text>
<polygon fill="none" stroke="black" points="593.5,-105 593.5,-130 612.5,-130 612.5,-105 593.5,-105"/>
<text text-anchor="start" x="598.5" y="-113.8" font-family="Times,serif" font-size="14.00">y</text>
<polygon fill="none" stroke="black" points="612.5,-105 612.5,-130 728.5,-130 728.5,-105 612.5,-105"/>
<text text-anchor="start" x="617.5" y="-113.8" font-family="Times,serif" font-size="14.00">float32 (4 bytes)</text>
<polygon fill="none" stroke="black" points="575.5,-80 575.5,-105 593.5,-105 593.5,-80 575.5,-80"/>
<text text-anchor="start" x="580.5" y="-88.8" font-family="Times,serif" font-size="14.00">8</text>
<polygon fill="none" stroke="black" points="593.5,-80 593.5,-105 612.5,-105 612.5,-80 593.5,-80"/>
<text text-anchor="start" x="599" y="-88.8" font-family="Times,serif" font-size="14.00">z</text>
<polygon fill="none" stroke="black" points="612.5,-80 612.5,-105 728.5,-105 728.5,-80 612.5,-80"/>
<text text-anchor="start" x="617.5" y="-88.8" font-family="Times,serif" font-size="14.00">float32 (4 bytes)</text>
</g>
<!-- decl3 -->
<g id="node5" class="node">
<title>decl3</title>
<polygon fill="none" stroke="black" points="8,-401 8,-426 476,-426 476,-401 8,-401"/>
<text text-anchor="start" x="136" y="-409.8" font-family="Times,serif" font-size="14.00">table MyGame.Sample.Monster</text>
<polygon fill="none" stroke="black" points="8,-376 8,-401 45,-401 45,-376 8,-376"/>
<text text-anchor="start" x="22.5" y="-384.8" font-family="Times,serif" font-size="14.00">0</text>
<polygon fill="none" stroke="black" points="45,-376 45,-401 122,-401 122,-376 45,-376"/>
<text text-anchor="start" x="72" y="-384.8" font-family="Times,serif" font-size="14.00">pos</text>
<polygon fill="none" stroke="black" points="122,-376 122,-401 384,-401 384,-376 122,-376"/>
<text text-anchor="start" x="204.5" y="-384.8" font-family="Times,serif" font-size="14.00">Vec3 (12 bytes)</text>
<polygon fill="none" stroke="black" points="384,-376 384,-401 476,-401 476,-376 384,-376"/>
<text text-anchor="start" x="401.5" y="-384.8" font-family="Times,serif" font-size="14.00">optional</text>
<polygon fill="none" stroke="black" points="8,-351 8,-376 45,-376 45,-351 8,-351"/>
<text text-anchor="start" x="22.5" y="-359.8" font-family="Times,serif" font-size="14.00">1</text>
<polygon fill="none" stroke="black" points="45,-351 45,-376 122,-376 122,-351 45,-351"/>
<text text-anchor="start" x="63.5" y="-359.8" font-family="Times,serif" font-size="14.00">mana</text>
<polygon fill="none" stroke="black" points="122,-351 122,-376 384,-376 384,-351 122,-351"/>
<text text-anchor="start" x="206" y="-359.8" font-family="Times,serif" font-size="14.00">int16 (2 bytes)</text>
<polygon fill="none" stroke="black" points="384,-351 384,-376 476,-376 476,-351 384,-351"/>
<text text-anchor="start" x="392.5" y="-359.8" font-family="Times,serif" font-size="14.00">default 150</text>
<polygon fill="none" stroke="black" points="8,-326 8,-351 45,-351 45,-326 8,-326"/>
<text text-anchor="start" x="22.5" y="-334.8" font-family="Times,serif" font-size="14.00">2</text>
<polygon fill="none" stroke="black" points="45,-326 45,-351 122,-351 122,-326 45,-326"/>
<text text-anchor="start" x="74.5" y="-334.8" font-family="Times,serif" font-size="14.00">hp</text>
<polygon fill="none" stroke="black" points="122,-326 122,-351 384,-351 384,-326 122,-326"/>
<text text-anchor="start" x="206" y="-334.8" font-family="Times,serif" font-size="14.00">int16 (2 bytes)</text>
<polygon fill="none" stroke="black" points="384,-326 384,-351 476,-351 476,-326 384,-326"/>
<text text-anchor="start" x="392.5" y="-334.8" font-family="Times,serif" font-size="14.00">default 100</text>
<polygon fill="none" stroke="black" points="8,-301 8,-326 45,-326 45,-301 8,-301"/>
<text text-anchor="start" x="22.5" y="-309.8" font-family="Times,serif" font-size="14.00">3</text>
<polygon fill="none" stroke="black" points="45,-301 45,-326 122,-326 122,-301 45,-301"/>
<text text-anchor="start" x="64" y="-309.8" font-family="Times,serif" font-size="14.00">name</text>
<polygon fill="none" stroke="black" points="122,-301 122,-326 384,-326 384,-301 122,-301"/>
<text text-anchor="start" x="203.5" y="-309.8" font-family="Times,serif" font-size="14.00">string (4 bytes)</text>
<polygon fill="none" stroke="black" points="384,-301 384,-326 476,-326 476,-301 384,-301"/>
<text text-anchor="start" x="401.5" y="-309.8" font-family="Times,serif" font-size="14.00">optional</text>
<polygon fill="none" stroke="black" points="8,-276 8,-301 45,-301 45,-276 8,-276"/>
<text text-anchor="start" x="22.5" y="-284.8" font-family="Times,serif" font-size="14.00">5</text>
<polygon fill="none" stroke="black" points="45,-276 45,-301 122,-301 122,-276 45,-276"/>
<text text-anchor="start" x="50" y="-284.8" font-family="Times,serif" font-size="14.00">inventory</text>
<polygon fill="none" stroke="black" points="122,-276 122,-301 384,-301 384,-276 122,-276"/>
<text text-anchor="start" x="200" y="-284.8" font-family="Times,serif" font-size="14.00">[uint8] (4 bytes)</text>
<polygon fill="none" stroke="black" points="384,-276 384,-301 476,-301 476,-276 384,-276"/>
<text text-anchor="start" x="401.5" y="-284.8" font-family="Times,serif" font-size="14.00">optional</text>
<polygon fill="none" stroke="black" points="8,-251 8,-276 45,-276 45,-251 8,-251"/>
<text text-anchor="start" x="22.5" y="-259.8" font-family="Times,serif" font-size="14.00">6</text>
<polygon fill="none" stroke="black" points="45,-251 45,-276 122,-276 122,-251 45,-251"/>
<text text-anchor="start" x="66" y="-259.8" font-family="Times,serif" font-size="14.00">color</text>
<polygon fill="none" stroke="black" points="122,-251 122,-276 384,-276 384,-251 122,-251"/>
<text text-anchor="start" x="146.5" y="-259.8" font-family="Times,serif" font-size="14.00">MyGame.Sample.Color (1 bytes)</text>
<polygon fill="none" stroke="black" points="384,-251 384,-276 476,-276 476,-251 384,-251"/>
<text text-anchor="start" x="389" y="-259.8" font-family="Times,serif" font-size="14.00">default Blue</text>
<polygon fill="none" stroke="black" points="8,-226 8,-251 45,-251 45,-226 8,-226"/>
<text text-anchor="start" x="22.5" y="-234.8" font-family="Times,serif" font-size="14.00">7</text>
<polygon fill="none" stroke="black" points="45,-226 45,-251 122,-251 122,-226 45,-226"/>
<text text-anchor="start" x="53.5" y="-234.8" font-family="Times,serif" font-size="14.00">weapons</text>
<polygon fill="none" stroke="black" points="122,-226 122,-251 384,-251 384,-226 122,-226"/>
<text text-anchor="start" x="132.5" y="-234.8" font-family="Times,serif" font-size="14.00">[MyGame.Sample.Weapon] (4 bytes)</text>
<polygon fill="none" stroke="black" points="384,-226 384,-251 476,-251 476,-226 384,-226"/>
<text text-anchor="start" x="401.5" y="-234.8" font-family="Times,serif" font-size="14.00">optional</text>
<polygon fill="none" stroke="black" points="8,-201 8,-226 45,-226 45,-201 8,-201"/>
<text text-anchor="start" x="13" y="-209.8" font-family="Times,serif" font-size="14.00">8 / 9</text>
<polygon fill="none" stroke="black" points="45,-201 45,-226 122,-226 122,-201 45,-201"/>
<text text-anchor="start" x="52.5" y="-209.8" font-family="Times,serif" font-size="14.00">equipped</text>
<polygon fill="none" stroke="black" points="122,-201 122,-226 384,-226 384,-201 122,-201"/>
<text text-anchor="start" x="127" y="-209.8" font-family="Times,serif" font-size="14.00">MyGame.Sample.Equipment (4 bytes)</text>
<polygon fill="none" stroke="black" points="384,-201 384,-226 476,-226 476,-201 384,-201"/>
<text text-anchor="start" x="401.5" y="-209.8" font-family="Times,serif" font-size="14.00">optional</text>
<polygon fill="none" stroke="black" points="8,-176 8,-201 45,-201 45,-176 8,-176"/>
<text text-anchor="start" x="18.5" y="-184.8" font-family="Times,serif" font-size="14.00">10</text>
<polygon fill="none" stroke="black" points="45,-176 45,-201 122,-201 122,-176 45,-176"/>
<text text-anchor="start" x="68" y="-184.8" font-family="Times,serif" font-size="14.00">path</text>
<polygon fill="none" stroke="black" points="122,-176 122,-201 384,-201 384,-176 122,-176"/>
<text text-anchor="start" x="203" y="-184.8" font-family="Times,serif" font-size="14.00">[Vec3] (4 bytes)</text>
<polygon fill="none" stroke="black" points="384,-176 384,-201 476,-201 476,-176 384,-176"/>
<text text-anchor="start" x="401.5" y="-184.8" font-family="Times,serif" font-size="14.00">optional</text>
</g>
<!-- decl3&#45;&gt;decl0 -->
<g id="edge3" class="edge">
<title>decl3:e&#45;&gt;decl0:name</title>
<path fill="none" stroke="#d8755f" d="M477,-263C520.52,-263 488.01,-341.02 517.28,-355.65"/>
<polygon fill="#d8755f" stroke="#d8755f" points="516.51,-359.07 527.02,-357.69 517.95,-352.22 516.51,-359.07"/>
</g>
<!-- decl3&#45;&gt;decl1 -->
<g id="edge5" class="edge">
<title>decl3:e&#45;&gt;decl1:name</title>
<path fill="none" stroke="#ba982a" d="M477,-213C551.91,-213 459.51,-60.19 516.12,-43.48"/>
<polygon fill="#ba982a" stroke="#ba982a" points="516.53,-46.95 526,-42.19 515.63,-40.01 516.53,-46.95"/>
</g>
<!-- decl3&#45;&gt;decl4 -->
<g id="edge4" class="edge">
<title>decl3:e&#45;&gt;decl4:name</title>
<path fill="none" stroke="#fc0213" d="M477,-238C545.13,-238 726.6,-257.22 783,-219 816.64,-196.2 788.44,-140.11 815.16,-128.95"/>
<polygon fill="#fc0213" stroke="#fc0213" points="815.75,-132.4 825.01,-127.26 814.56,-125.5 815.75,-132.4"/>
</g>
<!-- decl3&#45;&gt;decl2 -->
<g id="edge2" class="edge">
<title>decl3:e&#45;&gt;decl2:name</title>
<path fill="none" stroke="#0804f7" d="M477,-389C552.78,-389 473.88,-284.13 520,-224 534.44,-205.17 543.6,-195.93 563.21,-193.6"/>
<polygon fill="#0804f7" stroke="#0804f7" points="563.19,-197.11 572.99,-193.08 562.82,-190.12 563.19,-197.11"/>
</g>
<!-- decl3&#45;&gt;decl2 -->
<g id="edge6" class="edge">
<title>decl3:e&#45;&gt;decl2:name</title>
<path fill="none" stroke="#66db23" d="M477,-188C516.32,-188 528.81,-192.11 563.1,-192.88"/>
<polygon fill="#66db23" stroke="#66db23" points="562.95,-196.37 572.99,-192.98 563.03,-189.38 562.95,-196.37"/>
</g>
</g>
</svg>
