<?xml version="1.0" encoding="UTF-8" standalone="no"?>
<!DOCTYPE svg PUBLIC "-//W3C//DTD SVG 1.1//EN"
 "http://www.w3.org/Graphics/SVG/1.1/DTD/svg11.dtd">
<!-- Generated by graphviz version 12.2.0 (0)
 -->
<!-- Title: G Pages: 1 -->
<svg width="1109pt" height="519pt"
 viewBox="0.00 0.00 1108.50 519.25" xmlns="http://www.w3.org/2000/svg" xmlns:xlink="http://www.w3.org/1999/xlink">
<g id="graph0" class="graph" transform="scale(1 1) rotate(0) translate(4 515.25)">
<title>G</title>
<polygon fill="white" stroke="none" points="-4,4 -4,-515.25 1104.5,-515.25 1104.5,4 -4,4"/>
<!-- decl0 -->
<g id="node1" class="node">
<title>decl0</title>
<polygon fill="none" stroke="black" points="537.75,-477.75 537.75,-507.25 781,-507.25 781,-477.75 537.75,-477.75"/>
<text text-anchor="start" x="542.75" y="-488.95" font-family="Times,serif" font-size="14.00">enum MyGame.Sample.Color : int8</text>
<polygon fill="none" stroke="black" points="537.75,-448.25 537.75,-477.75 675.88,-477.75 675.88,-448.25 537.75,-448.25"/>
<text text-anchor="start" x="594.44" y="-459.45" font-family="Times,serif" font-size="14.00">Red</text>
<polygon fill="none" stroke="black" points="675.88,-448.25 675.88,-477.75 781,-477.75 781,-448.25 675.88,-448.25"/>
<text text-anchor="start" x="724.69" y="-459.45" font-family="Times,serif" font-size="14.00">0</text>
<polygon fill="none" stroke="black" points="537.75,-418.75 537.75,-448.25 675.88,-448.25 675.88,-418.75 537.75,-418.75"/>
<text text-anchor="start" x="586.56" y="-429.95" font-family="Times,serif" font-size="14.00">Green</text>
<polygon fill="none" stroke="black" points="675.88,-418.75 675.88,-448.25 781,-448.25 781,-418.75 675.88,-418.75"/>
<text text-anchor="start" x="724.69" y="-429.95" font-family="Times,serif" font-size="14.00">1</text>
<polygon fill="none" stroke="black" points="537.75,-389.25 537.75,-418.75 675.88,-418.75 675.88,-389.25 537.75,-389.25"/>
<text text-anchor="start" x="591.81" y="-400.45" font-family="Times,serif" font-size="14.00">Blue</text>
<polygon fill="none" stroke="black" points="675.88,-389.25 675.88,-418.75 781,-418.75 781,-389.25 675.88,-389.25"/>
<text text-anchor="start" x="724.69" y="-400.45" font-family="Times,serif" font-size="14.00">2</text>
</g>
<!-- decl1 -->
<g id="node2" class="node">
<title>decl1</title>
<polygon fill="none" stroke="black" points="536.5,-122 536.5,-151.5 782.25,-151.5 782.25,-122 536.5,-122"/>
<text text-anchor="start" x="541.62" y="-133.2" font-family="Times,serif" font-size="14.00">union MyGame.Sample.Equipment</text>
<polygon fill="none" stroke="black" points="536.5,-92.5 536.5,-122 601.25,-122 601.25,-92.5 536.5,-92.5"/>
<text text-anchor="start" x="541.5" y="-103.7" font-family="Times,serif" font-size="14.00">Weapon</text>
<polygon fill="none" stroke="black" points="601.25,-92.5 601.25,-122 782.25,-122 782.25,-92.5 601.25,-92.5"/>
<text text-anchor="start" x="606.25" y="-103.7" font-family="Times,serif" font-size="14.00">MyGame.Sample.Weapon</text>
<polygon fill="none" stroke="black" points="536.5,-63 536.5,-92.5 601.25,-92.5 601.25,-63 536.5,-63"/>
<text text-anchor="start" x="548.25" y="-74.2" font-family="Times,serif" font-size="14.00">Shield</text>
<polygon fill="none" stroke="black" points="601.25,-63 601.25,-92.5 782.25,-92.5 782.25,-63 601.25,-63"/>
<text text-anchor="start" x="612.25" y="-74.2" font-family="Times,serif" font-size="14.00">MyGame.Sample.Shield</text>
</g>
<!-- decl4 -->
<g id="node3" class="node">
<title>decl4</title>
<polygon fill="none" stroke="black" points="834.25,-260 834.25,-289.5 1092.5,-289.5 1092.5,-260 834.25,-260"/>
<text text-anchor="start" x="859.12" y="-271.2" font-family="Times,serif" font-size="14.00">table MyGame.Sample.Weapon</text>
<polygon fill="none" stroke="black" points="834.25,-230.5 834.25,-260 851.75,-260 851.75,-230.5 834.25,-230.5"/>
<text text-anchor="start" x="839.25" y="-241.7" font-family="Times,serif" font-size="14.00">0</text>
<polygon fill="none" stroke="black" points="851.75,-230.5 851.75,-260 915,-260 915,-230.5 851.75,-230.5"/>
<text text-anchor="start" x="864.25" y="-241.7" font-family="Times,serif" font-size="14.00">name</text>
<polygon fill="none" stroke="black" points="915,-230.5 915,-260 1023.25,-260 1023.25,-230.5 915,-230.5"/>
<text text-anchor="start" x="920" y="-241.7" font-family="Times,serif" font-size="14.00">string (4 bytes)</text>
<polygon fill="none" stroke="black" points="1023.25,-230.5 1023.25,-260 1092.5,-260 1092.5,-230.5 1023.25,-230.5"/>
<text text-anchor="start" x="1029.75" y="-241.7" font-family="Times,serif" font-size="14.00">optional</text>
<polygon fill="none" stroke="black" points="834.25,-201 834.25,-230.5 851.75,-230.5 851.75,-201 834.25,-201"/>
<text text-anchor="start" x="839.25" y="-212.2" font-family="Times,serif" font-size="14.00">1</text>
<polygon fill="none" stroke="black" points="851.75,-201 851.75,-230.5 915,-230.5 915,-201 851.75,-201"/>
<text text-anchor="start" x="856.75" y="-212.2" font-family="Times,serif" font-size="14.00">damage</text>
<polygon fill="none" stroke="black" points="915,-201 915,-230.5 1023.25,-230.5 1023.25,-201 915,-201"/>
<text text-anchor="start" x="922.62" y="-212.2" font-family="Times,serif" font-size="14.00">int16 (2 bytes)</text>
<polygon fill="none" stroke="black" points="1023.25,-201 1023.25,-230.5 1092.5,-230.5 1092.5,-201 1023.25,-201"/>
<text text-anchor="start" x="1028.25" y="-212.2" font-family="Times,serif" font-size="14.00">default 0</text>
</g>
<!-- decl1&#45;&gt;decl4 -->
<g id="edge1" class="edge">
<title>decl1:e&#45;&gt;decl4:name</title>
<path fill="none" stroke="#6e4ac9" d="M783.25,-107.25C856.69,-107.25 766.54,-256.93 822.09,-273.3"/>
<polygon fill="#6e4ac9" stroke="#6e4ac9" points="821.38,-276.74 831.75,-274.56 822.28,-269.8 821.38,-276.74"/>
</g>
<!-- decl5 -->
<g id="node4" class="node">
<title>decl5</title>
<polygon fill="none" stroke="black" points="839.12,-63 839.12,-92.5 1087.62,-92.5 1087.62,-63 839.12,-63"/>
<text text-anchor="start" x="865.12" y="-74.2" font-family="Times,serif" font-size="14.00">table MyGame.Sample.Shield</text>
<polygon fill="none" stroke="black" points="839.12,-33.5 839.12,-63 856.62,-63 856.62,-33.5 839.12,-33.5"/>
<text text-anchor="start" x="844.12" y="-44.7" font-family="Times,serif" font-size="14.00">0</text>
<polygon fill="none" stroke="black" points="856.62,-33.5 856.62,-63 910.12,-63 910.12,-33.5 856.62,-33.5"/>
<text text-anchor="start" x="864.25" y="-44.7" font-family="Times,serif" font-size="14.00">name</text>
<polygon fill="none" stroke="black" points="910.12,-33.5 910.12,-63 1018.38,-63 1018.38,-33.5 910.12,-33.5"/>
<text text-anchor="start" x="915.12" y="-44.7" font-family="Times,serif" font-size="14.00">string (4 bytes)</text>
<polygon fill="none" stroke="black" points="1018.38,-33.5 1018.38,-63 1087.62,-63 1087.62,-33.5 1018.38,-33.5"/>
<text text-anchor="start" x="1024.88" y="-44.7" font-family="Times,serif" font-size="14.00">optional</text>
<polygon fill="none" stroke="black" points="839.12,-4 839.12,-33.5 856.62,-33.5 856.62,-4 839.12,-4"/>
<text text-anchor="start" x="844.12" y="-15.2" font-family="Times,serif" font-size="14.00">1</text>
<polygon fill="none" stroke="black" points="856.62,-4 856.62,-33.5 910.12,-33.5 910.12,-4 856.62,-4"/>
<text text-anchor="start" x="861.62" y="-15.2" font-family="Times,serif" font-size="14.00">armor</text>
<polygon fill="none" stroke="black" points="910.12,-4 910.12,-33.5 1018.38,-33.5 1018.38,-4 910.12,-4"/>
<text text-anchor="start" x="917.75" y="-15.2" font-family="Times,serif" font-size="14.00">int16 (2 bytes)</text>
<polygon fill="none" stroke="black" points="1018.38,-4 1018.38,-33.5 1087.62,-33.5 1087.62,-4 1018.38,-4"/>
<text text-anchor="start" x="1023.38" y="-15.2" font-family="Times,serif" font-size="14.00">default 0</text>
</g>
<!-- decl1&#45;&gt;decl5 -->
<g id="edge2" class="edge">
<title>decl1:e&#45;&gt;decl5:name</title>
<path fill="none" stroke="#8644c4" d="M783.25,-77.75C803.45,-77.75 811.1,-77.75 826.98,-77.75"/>
<polygon fill="#8644c4" stroke="#8644c4" points="826.61,-81.25 836.61,-77.75 826.61,-74.25 826.61,-81.25"/>
</g>
<!-- decl2 -->
<g id="node5" class="node">
<title>decl2</title>
<polygon fill="none" stroke="black" points="584,-295.5 584,-325 734.75,-325 734.75,-295.5 584,-295.5"/>
<text text-anchor="start" x="623" y="-306.7" font-family="Times,serif" font-size="14.00">struct Vec3</text>
<polygon fill="none" stroke="black" points="584,-266 584,-295.5 734.75,-295.5 734.75,-266 584,-266"/>
<text text-anchor="start" x="589.62" y="-277.2" font-family="Times,serif" font-size="14.00">size=12, alignment=4</text>
<polygon fill="none" stroke="black" points="584,-236.5 584,-266 601.5,-266 601.5,-236.5 584,-236.5"/>
<text text-anchor="start" x="589" y="-247.7" font-family="Times,serif" font-size="14.00">0</text>
<polygon fill="none" stroke="black" points="601.5,-236.5 601.5,-266 619.75,-266 619.75,-236.5 601.5,-236.5"/>
<text text-anchor="start" x="606.5" y="-247.7" font-family="Times,serif" font-size="14.00">x</text>
<polygon fill="none" stroke="black" points="619.75,-236.5 619.75,-266 734.75,-266 734.75,-236.5 619.75,-236.5"/>
<text text-anchor="start" x="624.75" y="-247.7" font-family="Times,serif" font-size="14.00">float32 (4 bytes)</text>
<polygon fill="none" stroke="black" points="584,-207 584,-236.5 601.5,-236.5 601.5,-207 584,-207"/>
<text text-anchor="start" x="589" y="-218.2" font-family="Times,serif" font-size="14.00">4</text>
<polygon fill="none" stroke="black" points="601.5,-207 601.5,-236.5 619.75,-236.5 619.75,-207 601.5,-207"/>
<text text-anchor="start" x="606.5" y="-218.2" font-family="Times,serif" font-size="14.00">y</text>
<polygon fill="none" stroke="black" points="619.75,-207 619.75,-236.5 734.75,-236.5 734.75,-207 619.75,-207"/>
<text text-anchor="start" x="624.75" y="-218.2" font-family="Times,serif" font-size="14.00">float32 (4 bytes)</text>
<polygon fill="none" stroke="black" points="584,-177.5 584,-207 601.5,-207 601.5,-177.5 584,-177.5"/>
<text text-anchor="start" x="589" y="-188.7" font-family="Times,serif" font-size="14.00">8</text>
<polygon fill="none" stroke="black" points="601.5,-177.5 601.5,-207 619.75,-207 619.75,-177.5 601.5,-177.5"/>
<text text-anchor="start" x="606.88" y="-188.7" font-family="Times,serif" font-size="14.00">z</text>
<polygon fill="none" stroke="black" points="619.75,-177.5 619.75,-207 734.75,-207 734.75,-177.5 619.75,-177.5"/>
<text text-anchor="start" x="624.75" y="-188.7" font-family="Times,serif" font-size="14.00">float32 (4 bytes)</text>
</g>
<!-- decl3 -->
<g id="node6" class="node">
<title>decl3</title>
<polygon fill="none" stroke="black" points="8,-468 8,-497.5 484.5,-497.5 484.5,-468 8,-468"/>
<text text-anchor="start" x="140.5" y="-479.2" font-family="Times,serif" font-size="14.00">table MyGame.Sample.Monster</text>
<polygon fill="none" stroke="black" points="8,-438.5 8,-468 44.25,-468 44.25,-438.5 8,-438.5"/>
<text text-anchor="start" x="22.38" y="-449.7" font-family="Times,serif" font-size="14.00">0</text>
<polygon fill="none" stroke="black" points="44.25,-438.5 44.25,-468 121,-468 121,-438.5 44.25,-438.5"/>
<text text-anchor="start" x="71.38" y="-449.7" font-family="Times,serif" font-size="14.00">pos</text>
<polygon fill="none" stroke="black" points="121,-438.5 121,-468 392.75,-468 392.75,-438.5 121,-438.5"/>
<text text-anchor="start" x="208.5" y="-449.7" font-family="Times,serif" font-size="14.00">Vec3 (12 bytes)</text>
<polygon fill="none" stroke="black" points="392.75,-438.5 392.75,-468 484.5,-468 484.5,-438.5 392.75,-438.5"/>
<text text-anchor="start" x="410.5" y="-449.7" font-family="Times,serif" font-size="14.00">optional</text>
<polygon fill="none" stroke="black" points="8,-409 8,-438.5 44.25,-438.5 44.25,-409 8,-409"/>
<text text-anchor="start" x="22.38" y="-420.2" font-family="Times,serif" font-size="14.00">1</text>
<polygon fill="none" stroke="black" points="44.25,-409 44.25,-438.5 121,-438.5 121,-409 44.25,-409"/>
<text text-anchor="start" x="63.12" y="-420.2" font-family="Times,serif" font-size="14.00">mana</text>
<polygon fill="none" stroke="black" points="121,-409 121,-438.5 392.75,-438.5 392.75,-409 121,-409"/>
<text text-anchor="start" x="210.38" y="-420.2" font-family="Times,serif" font-size="14.00">int16 (2 bytes)</text>
<polygon fill="none" stroke="black" points="392.75,-409 392.75,-438.5 484.5,-438.5 484.5,-409 392.75,-409"/>
<text text-anchor="start" x="401.5" y="-420.2" font-family="Times,serif" font-size="14.00">default 150</text>
<polygon fill="none" stroke="black" points="8,-379.5 8,-409 44.25,-409 44.25,-379.5 8,-379.5"/>
<text text-anchor="start" x="22.38" y="-390.7" font-family="Times,serif" font-size="14.00">2</text>
<polygon fill="none" stroke="black" points="44.25,-379.5 44.25,-409 121,-409 121,-379.5 44.25,-379.5"/>
<text text-anchor="start" x="74" y="-390.7" font-family="Times,serif" font-size="14.00">hp</text>
<polygon fill="none" stroke="black" points="121,-379.5 121,-409 392.75,-409 392.75,-379.5 121,-379.5"/>
<text text-anchor="start" x="210.38" y="-390.7" font-family="Times,serif" font-size="14.00">int16 (2 bytes)</text>
<polygon fill="none" stroke="black" points="392.75,-379.5 392.75,-409 484.5,-409 484.5,-379.5 392.75,-379.5"/>
<text text-anchor="start" x="401.5" y="-390.7" font-family="Times,serif" font-size="14.00">default 100</text>
<polygon fill="none" stroke="black" points="8,-350 8,-379.5 44.25,-379.5 44.25,-350 8,-350"/>
<text text-anchor="start" x="22.38" y="-361.2" font-family="Times,serif" font-size="14.00">3</text>
<polygon fill="none" stroke="black" points="44.25,-350 44.25,-379.5 121,-379.5 121,-350 44.25,-350"/>
<text text-anchor="start" x="63.5" y="-361.2" font-family="Times,serif" font-size="14.00">name</text>
<polygon fill="none" stroke="black" points="121,-350 121,-379.5 392.75,-379.5 392.75,-350 121,-350"/>
<text text-anchor="start" x="207.75" y="-361.2" font-family="Times,serif" font-size="14.00">string (4 bytes)</text>
<polygon fill="none" stroke="black" points="392.75,-350 392.75,-379.5 484.5,-379.5 484.5,-350 392.75,-350"/>
<text text-anchor="start" x="410.5" y="-361.2" font-family="Times,serif" font-size="14.00">optional</text>
<polygon fill="none" stroke="black" points="8,-320.5 8,-350 44.25,-350 44.25,-320.5 8,-320.5"/>
<text text-anchor="start" x="22.38" y="-331.7" font-family="Times,serif" font-size="14.00">5</text>
<polygon fill="none" stroke="black" points="44.25,-320.5 44.25,-350 121,-350 121,-320.5 44.25,-320.5"/>
<text text-anchor="start" x="49.25" y="-331.7" font-family="Times,serif" font-size="14.00">inventory</text>
<polygon fill="none" stroke="black" points="121,-320.5 121,-350 392.75,-350 392.75,-320.5 121,-320.5"/>
<text text-anchor="start" x="204.38" y="-331.7" font-family="Times,serif" font-size="14.00">[uint8] (4 bytes)</text>
<polygon fill="none" stroke="black" points="392.75,-320.5 392.75,-350 484.5,-350 484.5,-320.5 392.75,-320.5"/>
<text text-anchor="start" x="410.5" y="-331.7" font-family="Times,serif" font-size="14.00">optional</text>
<polygon fill="none" stroke="black" points="8,-291 8,-320.5 44.25,-320.5 44.25,-291 8,-291"/>
<text text-anchor="start" x="22.38" y="-302.2" font-family="Times,serif" font-size="14.00">6</text>
<polygon fill="none" stroke="black" points="44.25,-291 44.25,-320.5 121,-320.5 121,-291 44.25,-291"/>
<text text-anchor="start" x="65.38" y="-302.2" font-family="Times,serif" font-size="14.00">color</text>
<polygon fill="none" stroke="black" points="121,-291 121,-320.5 392.75,-320.5 392.75,-291 121,-291"/>
<text text-anchor="start" x="150.75" y="-302.2" font-family="Times,serif" font-size="14.00">MyGame.Sample.Color (1 bytes)</text>
<polygon fill="none" stroke="black" points="392.75,-291 392.75,-320.5 484.5,-320.5 484.5,-291 392.75,-291"/>
<text text-anchor="start" x="397.75" y="-302.2" font-family="Times,serif" font-size="14.00">default Blue</text>
<polygon fill="none" stroke="black" points="8,-261.5 8,-291 44.25,-291 44.25,-261.5 8,-261.5"/>
<text text-anchor="start" x="22.38" y="-272.7" font-family="Times,serif" font-size="14.00">7</text>
<polygon fill="none" stroke="black" points="44.25,-261.5 44.25,-291 121,-291 121,-261.5 44.25,-261.5"/>
<text text-anchor="start" x="53" y="-272.7" font-family="Times,serif" font-size="14.00">weapons</text>
<polygon fill="none" stroke="black" points="121,-261.5 121,-291 392.75,-291 392.75,-261.5 121,-261.5"/>
<text text-anchor="start" x="136.5" y="-272.7" font-family="Times,serif" font-size="14.00">[MyGame.Sample.Weapon] (4 bytes)</text>
<polygon fill="none" stroke="black" points="392.75,-261.5 392.75,-291 484.5,-291 484.5,-261.5 392.75,-261.5"/>
<text text-anchor="start" x="410.5" y="-272.7" font-family="Times,serif" font-size="14.00">optional</text>
<polygon fill="none" stroke="black" points="8,-232 8,-261.5 44.25,-261.5 44.25,-232 8,-232"/>
<text text-anchor="start" x="13" y="-243.2" font-family="Times,serif" font-size="14.00">8 / 9</text>
<polygon fill="none" stroke="black" points="44.25,-232 44.25,-261.5 121,-261.5 121,-232 44.25,-232"/>
<text text-anchor="start" x="51.88" y="-243.2" font-family="Times,serif" font-size="14.00">equipped</text>
<polygon fill="none" stroke="black" points="121,-232 121,-261.5 392.75,-261.5 392.75,-232 121,-232"/>
<text text-anchor="start" x="131.25" y="-243.2" font-family="Times,serif" font-size="14.00">MyGame.Sample.Equipment (4 bytes)</text>
<polygon fill="none" stroke="black" points="392.75,-232 392.75,-261.5 484.5,-261.5 484.5,-232 392.75,-232"/>
<text text-anchor="start" x="410.5" y="-243.2" font-family="Times,serif" font-size="14.00">optional</text>
<polygon fill="none" stroke="black" points="8,-202.5 8,-232 44.25,-232 44.25,-202.5 8,-202.5"/>
<text text-anchor="start" x="18.62" y="-213.7" font-family="Times,serif" font-size="14.00">11</text>
<polygon fill="none" stroke="black" points="44.25,-202.5 44.25,-232 121,-232 121,-202.5 44.25,-202.5"/>
<text text-anchor="start" x="63.88" y="-213.7" font-family="Times,serif" font-size="14.00">drops</text>
<polygon fill="none" stroke="black" points="121,-202.5 121,-232 392.75,-232 392.75,-202.5 121,-202.5"/>
<text text-anchor="start" x="126" y="-213.7" font-family="Times,serif" font-size="14.00">[MyGame.Sample.Equipment] (4 bytes)</text>
<polygon fill="none" stroke="black" points="392.75,-202.5 392.75,-232 484.5,-232 484.5,-202.5 392.75,-202.5"/>
<text text-anchor="start" x="410.5" y="-213.7" font-family="Times,serif" font-size="14.00">optional</text>
<polygon fill="none" stroke="black" points="8,-173 8,-202.5 44.25,-202.5 44.25,-173 8,-173"/>
<text text-anchor="start" x="18.62" y="-184.2" font-family="Times,serif" font-size="14.00">12</text>
<polygon fill="none" stroke="black" points="44.25,-173 44.25,-202.5 121,-202.5 121,-173 44.25,-173"/>
<text text-anchor="start" x="67.25" y="-184.2" font-family="Times,serif" font-size="14.00">path</text>
<polygon fill="none" stroke="black" points="121,-173 121,-202.5 392.75,-202.5 392.75,-173 121,-173"/>
<text text-anchor="start" x="207" y="-184.2" font-family="Times,serif" font-size="14.00">[Vec3] (4 bytes)</text>
<polygon fill="none" stroke="black" points="392.75,-173 392.75,-202.5 484.5,-202.5 484.5,-173 392.75,-173"/>
<text text-anchor="start" x="410.5" y="-184.2" font-family="Times,serif" font-size="14.00">optional</text>
</g>
<!-- decl3&#45;&gt;decl0 -->
<g id="edge4" class="edge">
<title>decl3:e&#45;&gt;decl0:name</title>
<path fill="none" stroke="#47a3ad" d="M485.5,-305.75C567.37,-305.75 461.99,-474.71 525.57,-491.21"/>
<polygon fill="#47a3ad" stroke="#47a3ad" points="524.91,-494.65 535.25,-492.33 525.71,-487.7 524.91,-494.65"/>
</g>
<!-- decl3&#45;&gt;decl1 -->
<g id="edge6" class="edge">
<title>decl3:e&#45;&gt;decl1:name</title>
<path fill="none" stroke="#053975" d="M485.5,-246.75C534.8,-246.75 490.47,-154.06 524.4,-138.85"/>
<polygon fill="#053975" stroke="#053975" points="524.84,-142.33 534.01,-137.03 523.54,-135.45 524.84,-142.33"/>
</g>
<!-- decl3&#45;&gt;decl1 -->
<g id="edge7" class="edge">
<title>decl3:e&#45;&gt;decl1:name</title>
<path fill="none" stroke="#e5577a" d="M485.5,-217.25C523.18,-217.25 499.75,-152.84 524.54,-139.25"/>
<polygon fill="#e5577a" stroke="#e5577a" points="525.05,-142.72 534.02,-137.09 523.5,-135.9 525.05,-142.72"/>
</g>
<!-- decl3&#45;&gt;decl4 -->
<g id="edge5" class="edge">
<title>decl3:e&#45;&gt;decl4:name</title>
<path fill="none" stroke="#f20444" d="M485.5,-276.25C519.03,-276.25 498.79,-322.7 528.5,-338.25 580.03,-365.22 738.87,-365.51 790.25,-338.25 816.36,-324.4 803.89,-286.82 822.35,-277.08"/>
<polygon fill="#f20444" stroke="#f20444" points="822.72,-280.58 831.77,-275.07 821.26,-273.73 822.72,-280.58"/>
</g>
<!-- decl3&#45;&gt;decl2 -->
<g id="edge3" class="edge">
<title>decl3:e&#45;&gt;decl2:name</title>
<path fill="none" stroke="#3daf1d" d="M485.5,-453.25C537.99,-453.25 494.7,-383.41 528.5,-343.25 544.02,-324.8 552.1,-313.84 571.64,-311"/>
<polygon fill="#3daf1d" stroke="#3daf1d" points="571.74,-314.5 581.49,-310.35 571.28,-307.51 571.74,-314.5"/>
</g>
<!-- decl3&#45;&gt;decl2 -->
<g id="edge8" class="edge">
<title>decl3:e&#45;&gt;decl2:name</title>
<path fill="none" stroke="#09f7ef" d="M485.5,-187.75C551.01,-187.75 517.92,-296.32 571.87,-309.04"/>
<polygon fill="#09f7ef" stroke="#09f7ef" points="571.18,-312.48 581.5,-310.09 571.93,-305.52 571.18,-312.48"/>
</g>
</g>
</svg>
