<?xml version="1.0" encoding="UTF-8" standalone="no"?>
<!DOCTYPE svg PUBLIC "-//W3C//DTD SVG 1.1//EN"
 "http://www.w3.org/Graphics/SVG/1.1/DTD/svg11.dtd">
<!-- Generated by graphviz version 9.0.0 (0)
 -->
<!-- Title: G Pages: 1 -->
<svg width="1094pt" height="496pt"
 viewBox="0.00 0.00 1094.00 496.00" xmlns="http://www.w3.org/2000/svg" xmlns:xlink="http://www.w3.org/1999/xlink">
<g id="graph0" class="graph" transform="scale(1 1) rotate(0) translate(4 492)">
<title>G</title>
<polygon fill="white" stroke="none" points="-4,4 -4,-492 1090,-492 1090,4 -4,4"/>
<!-- decl0 -->
<g id="node1" class="node">
<title>decl0</title>
<polygon fill="none" stroke="black" points="525,-385 525,-414 768,-414 768,-385 525,-385"/>
<text text-anchor="start" x="529.88" y="-395.7" font-family="Times,serif" font-size="14.00">enum MyGame.Sample.Color : int8</text>
<polygon fill="none" stroke="black" points="525,-356 525,-385 663,-385 663,-356 525,-356"/>
<text text-anchor="start" x="581.62" y="-366.7" font-family="Times,serif" font-size="14.00">Red</text>
<polygon fill="none" stroke="black" points="663,-356 663,-385 768,-385 768,-356 663,-356"/>
<text text-anchor="start" x="711.75" y="-366.7" font-family="Times,serif" font-size="14.00">0</text>
<polygon fill="none" stroke="black" points="525,-327 525,-356 663,-356 663,-327 525,-327"/>
<text text-anchor="start" x="573.75" y="-337.7" font-family="Times,serif" font-size="14.00">Green</text>
<polygon fill="none" stroke="black" points="663,-327 663,-356 768,-356 768,-327 663,-327"/>
<text text-anchor="start" x="711.75" y="-337.7" font-family="Times,serif" font-size="14.00">1</text>
<polygon fill="none" stroke="black" points="525,-298 525,-327 663,-327 663,-298 525,-298"/>
<text text-anchor="start" x="579" y="-308.7" font-family="Times,serif" font-size="14.00">Blue</text>
<polygon fill="none" stroke="black" points="663,-298 663,-327 768,-327 768,-298 663,-298"/>
<text text-anchor="start" x="711.75" y="-308.7" font-family="Times,serif" font-size="14.00">2</text>
</g>
<!-- decl1 -->
<g id="node2" class="node">
<title>decl1</title>
<polygon fill="none" stroke="black" points="524,-33 524,-62 769,-62 769,-33 524,-33"/>
<text text-anchor="start" x="528.75" y="-43.7" font-family="Times,serif" font-size="14.00">union MyGame.Sample.Equipment</text>
<polygon fill="none" stroke="black" points="524,-4 524,-33 588,-33 588,-4 524,-4"/>
<text text-anchor="start" x="528.62" y="-14.7" font-family="Times,serif" font-size="14.00">Weapon</text>
<polygon fill="none" stroke="black" points="588,-4 588,-33 769,-33 769,-4 588,-4"/>
<text text-anchor="start" x="593" y="-14.7" font-family="Times,serif" font-size="14.00">MyGame.Sample.Weapon</text>
</g>
<!-- decl4 -->
<g id="node3" class="node">
<title>decl4</title>
<polygon fill="none" stroke="black" points="821,-127.5 821,-156.5 1078,-156.5 1078,-127.5 821,-127.5"/>
<text text-anchor="start" x="845.25" y="-138.2" font-family="Times,serif" font-size="14.00">table MyGame.Sample.Weapon</text>
<polygon fill="none" stroke="black" points="821,-98.5 821,-127.5 838,-127.5 838,-98.5 821,-98.5"/>
<text text-anchor="start" x="825.75" y="-109.2" font-family="Times,serif" font-size="14.00">0</text>
<polygon fill="none" stroke="black" points="838,-98.5 838,-127.5 901,-127.5 901,-98.5 838,-98.5"/>
<text text-anchor="start" x="850.38" y="-109.2" font-family="Times,serif" font-size="14.00">name</text>
<polygon fill="none" stroke="black" points="901,-98.5 901,-127.5 1009,-127.5 1009,-98.5 901,-98.5"/>
<text text-anchor="start" x="905.88" y="-109.2" font-family="Times,serif" font-size="14.00">string (4 bytes)</text>
<polygon fill="none" stroke="black" points="1009,-98.5 1009,-127.5 1078,-127.5 1078,-98.5 1009,-98.5"/>
<text text-anchor="start" x="1015.38" y="-109.2" font-family="Times,serif" font-size="14.00">optional</text>
<polygon fill="none" stroke="black" points="821,-69.5 821,-98.5 838,-98.5 838,-69.5 821,-69.5"/>
<text text-anchor="start" x="825.75" y="-80.2" font-family="Times,serif" font-size="14.00">1</text>
<polygon fill="none" stroke="black" points="838,-69.5 838,-98.5 901,-98.5 901,-69.5 838,-69.5"/>
<text text-anchor="start" x="842.88" y="-80.2" font-family="Times,serif" font-size="14.00">damage</text>
<polygon fill="none" stroke="black" points="901,-69.5 901,-98.5 1009,-98.5 1009,-69.5 901,-69.5"/>
<text text-anchor="start" x="908.5" y="-80.2" font-family="Times,serif" font-size="14.00">int16 (2 bytes)</text>
<polygon fill="none" stroke="black" points="1009,-69.5 1009,-98.5 1078,-98.5 1078,-69.5 1009,-69.5"/>
<text text-anchor="start" x="1013.88" y="-80.2" font-family="Times,serif" font-size="14.00">default 0</text>
</g>
<!-- decl1&#45;&gt;decl4 -->
<g id="edge1" class="edge">
<title>decl1:e&#45;&gt;decl4:name</title>
<path fill="none" stroke="#f411d2" d="M770.5,-18C825.36,-18 769.85,-124.28 808.33,-140.05"/>
<polygon fill="#f411d2" stroke="#f411d2" points="807.56,-143.47 818.01,-141.74 808.76,-136.57 807.56,-143.47"/>
</g>
<!-- decl2 -->
<g id="node4" class="node">
<title>decl2</title>
<polygon fill="none" stroke="black" points="571.5,-204.5 571.5,-233.5 721.5,-233.5 721.5,-204.5 571.5,-204.5"/>
<text text-anchor="start" x="610.12" y="-215.2" font-family="Times,serif" font-size="14.00">struct Vec3</text>
<polygon fill="none" stroke="black" points="571.5,-175.5 571.5,-204.5 721.5,-204.5 721.5,-175.5 571.5,-175.5"/>
<text text-anchor="start" x="576.75" y="-186.2" font-family="Times,serif" font-size="14.00">size=12, alignment=4</text>
<polygon fill="none" stroke="black" points="571.5,-146.5 571.5,-175.5 588.5,-175.5 588.5,-146.5 571.5,-146.5"/>
<text text-anchor="start" x="576.25" y="-157.2" font-family="Times,serif" font-size="14.00">0</text>
<polygon fill="none" stroke="black" points="588.5,-146.5 588.5,-175.5 606.5,-175.5 606.5,-146.5 588.5,-146.5"/>
<text text-anchor="start" x="593.38" y="-157.2" font-family="Times,serif" font-size="14.00">x</text>
<polygon fill="none" stroke="black" points="606.5,-146.5 606.5,-175.5 721.5,-175.5 721.5,-146.5 606.5,-146.5"/>
<text text-anchor="start" x="611.5" y="-157.2" font-family="Times,serif" font-size="14.00">float32 (4 bytes)</text>
<polygon fill="none" stroke="black" points="571.5,-117.5 571.5,-146.5 588.5,-146.5 588.5,-117.5 571.5,-117.5"/>
<text text-anchor="start" x="576.25" y="-128.2" font-family="Times,serif" font-size="14.00">4</text>
<polygon fill="none" stroke="black" points="588.5,-117.5 588.5,-146.5 606.5,-146.5 606.5,-117.5 588.5,-117.5"/>
<text text-anchor="start" x="593.38" y="-128.2" font-family="Times,serif" font-size="14.00">y</text>
<polygon fill="none" stroke="black" points="606.5,-117.5 606.5,-146.5 721.5,-146.5 721.5,-117.5 606.5,-117.5"/>
<text text-anchor="start" x="611.5" y="-128.2" font-family="Times,serif" font-size="14.00">float32 (4 bytes)</text>
<polygon fill="none" stroke="black" points="571.5,-88.5 571.5,-117.5 588.5,-117.5 588.5,-88.5 571.5,-88.5"/>
<text text-anchor="start" x="576.25" y="-99.2" font-family="Times,serif" font-size="14.00">8</text>
<polygon fill="none" stroke="black" points="588.5,-88.5 588.5,-117.5 606.5,-117.5 606.5,-88.5 588.5,-88.5"/>
<text text-anchor="start" x="593.75" y="-99.2" font-family="Times,serif" font-size="14.00">z</text>
<polygon fill="none" stroke="black" points="606.5,-88.5 606.5,-117.5 721.5,-117.5 721.5,-88.5 606.5,-88.5"/>
<text text-anchor="start" x="611.5" y="-99.2" font-family="Times,serif" font-size="14.00">float32 (4 bytes)</text>
</g>
<!-- decl3 -->
<g id="node5" class="node">
<title>decl3</title>
<polygon fill="none" stroke="black" points="8,-455 8,-484 472,-484 472,-455 8,-455"/>
<text text-anchor="start" x="134.25" y="-465.7" font-family="Times,serif" font-size="14.00">table MyGame.Sample.Monster</text>
<polygon fill="none" stroke="black" points="8,-426 8,-455 44,-455 44,-426 8,-426"/>
<text text-anchor="start" x="22.25" y="-436.7" font-family="Times,serif" font-size="14.00">0</text>
<polygon fill="none" stroke="black" points="44,-426 44,-455 120,-455 120,-426 44,-426"/>
<text text-anchor="start" x="70.75" y="-436.7" font-family="Times,serif" font-size="14.00">pos</text>
<polygon fill="none" stroke="black" points="120,-426 120,-455 381,-455 381,-426 120,-426"/>
<text text-anchor="start" x="202.12" y="-436.7" font-family="Times,serif" font-size="14.00">Vec3 (12 bytes)</text>
<polygon fill="none" stroke="black" points="381,-426 381,-455 472,-455 472,-426 381,-426"/>
<text text-anchor="start" x="398.38" y="-436.7" font-family="Times,serif" font-size="14.00">optional</text>
<polygon fill="none" stroke="black" points="8,-397 8,-426 44,-426 44,-397 8,-397"/>
<text text-anchor="start" x="22.25" y="-407.7" font-family="Times,serif" font-size="14.00">1</text>
<polygon fill="none" stroke="black" points="44,-397 44,-426 120,-426 120,-397 44,-397"/>
<text text-anchor="start" x="62.5" y="-407.7" font-family="Times,serif" font-size="14.00">mana</text>
<polygon fill="none" stroke="black" points="120,-397 120,-426 381,-426 381,-397 120,-397"/>
<text text-anchor="start" x="204" y="-407.7" font-family="Times,serif" font-size="14.00">int16 (2 bytes)</text>
<polygon fill="none" stroke="black" points="381,-397 381,-426 472,-426 472,-397 381,-397"/>
<text text-anchor="start" x="389.38" y="-407.7" font-family="Times,serif" font-size="14.00">default 150</text>
<polygon fill="none" stroke="black" points="8,-368 8,-397 44,-397 44,-368 8,-368"/>
<text text-anchor="start" x="22.25" y="-378.7" font-family="Times,serif" font-size="14.00">2</text>
<polygon fill="none" stroke="black" points="44,-368 44,-397 120,-397 120,-368 44,-368"/>
<text text-anchor="start" x="73.38" y="-378.7" font-family="Times,serif" font-size="14.00">hp</text>
<polygon fill="none" stroke="black" points="120,-368 120,-397 381,-397 381,-368 120,-368"/>
<text text-anchor="start" x="204" y="-378.7" font-family="Times,serif" font-size="14.00">int16 (2 bytes)</text>
<polygon fill="none" stroke="black" points="381,-368 381,-397 472,-397 472,-368 381,-368"/>
<text text-anchor="start" x="389.38" y="-378.7" font-family="Times,serif" font-size="14.00">default 100</text>
<polygon fill="none" stroke="black" points="8,-339 8,-368 44,-368 44,-339 8,-339"/>
<text text-anchor="start" x="22.25" y="-349.7" font-family="Times,serif" font-size="14.00">3</text>
<polygon fill="none" stroke="black" points="44,-339 44,-368 120,-368 120,-339 44,-339"/>
<text text-anchor="start" x="62.88" y="-349.7" font-family="Times,serif" font-size="14.00">name</text>
<polygon fill="none" stroke="black" points="120,-339 120,-368 381,-368 381,-339 120,-339"/>
<text text-anchor="start" x="201.38" y="-349.7" font-family="Times,serif" font-size="14.00">string (4 bytes)</text>
<polygon fill="none" stroke="black" points="381,-339 381,-368 472,-368 472,-339 381,-339"/>
<text text-anchor="start" x="398.38" y="-349.7" font-family="Times,serif" font-size="14.00">optional</text>
<polygon fill="none" stroke="black" points="8,-310 8,-339 44,-339 44,-310 8,-310"/>
<text text-anchor="start" x="22.25" y="-320.7" font-family="Times,serif" font-size="14.00">5</text>
<polygon fill="none" stroke="black" points="44,-310 44,-339 120,-339 120,-310 44,-310"/>
<text text-anchor="start" x="48.62" y="-320.7" font-family="Times,serif" font-size="14.00">inventory</text>
<polygon fill="none" stroke="black" points="120,-310 120,-339 381,-339 381,-310 120,-310"/>
<text text-anchor="start" x="198" y="-320.7" font-family="Times,serif" font-size="14.00">[uint8] (4 bytes)</text>
<polygon fill="none" stroke="black" points="381,-310 381,-339 472,-339 472,-310 381,-310"/>
<text text-anchor="start" x="398.38" y="-320.7" font-family="Times,serif" font-size="14.00">optional</text>
<polygon fill="none" stroke="black" points="8,-281 8,-310 44,-310 44,-281 8,-281"/>
<text text-anchor="start" x="22.25" y="-291.7" font-family="Times,serif" font-size="14.00">6</text>
<polygon fill="none" stroke="black" points="44,-281 44,-310 120,-310 120,-281 44,-281"/>
<text text-anchor="start" x="64.75" y="-291.7" font-family="Times,serif" font-size="14.00">color</text>
<polygon fill="none" stroke="black" points="120,-281 120,-310 381,-310 381,-281 120,-281"/>
<text text-anchor="start" x="144.38" y="-291.7" font-family="Times,serif" font-size="14.00">MyGame.Sample.Color (1 bytes)</text>
<polygon fill="none" stroke="black" points="381,-281 381,-310 472,-310 472,-281 381,-281"/>
<text text-anchor="start" x="385.62" y="-291.7" font-family="Times,serif" font-size="14.00">default Blue</text>
<polygon fill="none" stroke="black" points="8,-252 8,-281 44,-281 44,-252 8,-252"/>
<text text-anchor="start" x="22.25" y="-262.7" font-family="Times,serif" font-size="14.00">7</text>
<polygon fill="none" stroke="black" points="44,-252 44,-281 120,-281 120,-252 44,-252"/>
<text text-anchor="start" x="52.38" y="-262.7" font-family="Times,serif" font-size="14.00">weapons</text>
<polygon fill="none" stroke="black" points="120,-252 120,-281 381,-281 381,-252 120,-252"/>
<text text-anchor="start" x="130.12" y="-262.7" font-family="Times,serif" font-size="14.00">[MyGame.Sample.Weapon] (4 bytes)</text>
<polygon fill="none" stroke="black" points="381,-252 381,-281 472,-281 472,-252 381,-252"/>
<text text-anchor="start" x="398.38" y="-262.7" font-family="Times,serif" font-size="14.00">optional</text>
<polygon fill="none" stroke="black" points="8,-223 8,-252 44,-252 44,-223 8,-223"/>
<text text-anchor="start" x="12.88" y="-233.7" font-family="Times,serif" font-size="14.00">8 / 9</text>
<polygon fill="none" stroke="black" points="44,-223 44,-252 120,-252 120,-223 44,-223"/>
<text text-anchor="start" x="51.25" y="-233.7" font-family="Times,serif" font-size="14.00">equipped</text>
<polygon fill="none" stroke="black" points="120,-223 120,-252 381,-252 381,-223 120,-223"/>
<text text-anchor="start" x="124.88" y="-233.7" font-family="Times,serif" font-size="14.00">MyGame.Sample.Equipment (4 bytes)</text>
<polygon fill="none" stroke="black" points="381,-223 381,-252 472,-252 472,-223 381,-223"/>
<text text-anchor="start" x="398.38" y="-233.7" font-family="Times,serif" font-size="14.00">optional</text>
<polygon fill="none" stroke="black" points="8,-194 8,-223 44,-223 44,-194 8,-194"/>
<text text-anchor="start" x="18.5" y="-204.7" font-family="Times,serif" font-size="14.00">10</text>
<polygon fill="none" stroke="black" points="44,-194 44,-223 120,-223 120,-194 44,-194"/>
<text text-anchor="start" x="66.62" y="-204.7" font-family="Times,serif" font-size="14.00">path</text>
<polygon fill="none" stroke="black" points="120,-194 120,-223 381,-223 381,-194 120,-194"/>
<text text-anchor="start" x="200.62" y="-204.7" font-family="Times,serif" font-size="14.00">[Vec3] (4 bytes)</text>
<polygon fill="none" stroke="black" points="381,-194 381,-223 472,-223 472,-194 381,-194"/>
<text text-anchor="start" x="398.38" y="-204.7" font-family="Times,serif" font-size="14.00">optional</text>
</g>
<!-- decl3&#45;&gt;decl0 -->
<g id="edge3" class="edge">
<title>decl3:e&#45;&gt;decl0:name</title>
<path fill="none" stroke="#d8755f" d="M473,-295C520.33,-295 480.06,-382.73 512.34,-397.81"/>
<polygon fill="#d8755f" stroke="#d8755f" points="511.53,-401.21 522.01,-399.71 512.88,-394.35 511.53,-401.21"/>
</g>
<!-- decl3&#45;&gt;decl1 -->
<g id="edge5" class="edge">
<title>decl3:e&#45;&gt;decl1:name</title>
<path fill="none" stroke="#ba982a" d="M473,-237C555.59,-237 447.29,-66.01 511.24,-49.31"/>
<polygon fill="#ba982a" stroke="#ba982a" points="511.47,-52.81 521,-48.17 510.66,-45.85 511.47,-52.81"/>
</g>
<!-- decl3&#45;&gt;decl4 -->
<g id="edge4" class="edge">
<title>decl3:e&#45;&gt;decl4:name</title>
<path fill="none" stroke="#fc0213" d="M473,-266C540.69,-266 722.08,-286.57 777,-247 814.18,-220.22 777.18,-155.21 808.19,-143.74"/>
<polygon fill="#fc0213" stroke="#fc0213" points="808.65,-147.21 818,-142.23 807.59,-140.29 808.65,-147.21"/>
</g>
<!-- decl3&#45;&gt;decl2 -->
<g id="edge2" class="edge">
<title>decl3:e&#45;&gt;decl2:name</title>
<path fill="none" stroke="#0804f7" d="M473,-441C559.15,-441 465.59,-321.86 516,-252 530.11,-232.45 539.18,-222.26 559.04,-219.67"/>
<polygon fill="#0804f7" stroke="#0804f7" points="559.21,-223.17 568.99,-219.09 558.8,-216.18 559.21,-223.17"/>
</g>
<!-- decl3&#45;&gt;decl2 -->
<g id="edge6" class="edge">
<title>decl3:e&#45;&gt;decl2:name</title>
<path fill="none" stroke="#66db23" d="M473,-208C512.52,-208 524.67,-217.03 559.06,-218.73"/>
<polygon fill="#66db23" stroke="#66db23" points="558.91,-222.23 568.99,-218.96 559.07,-215.23 558.91,-222.23"/>
</g>
</g>
</svg>
