<?xml version="1.0" encoding="UTF-8" standalone="no"?>
<!DOCTYPE svg PUBLIC "-//W3C//DTD SVG 1.1//EN"
 "http://www.w3.org/Graphics/SVG/1.1/DTD/svg11.dtd">
<!-- Generated by graphviz version 12.2.0 (0)
 -->
<!-- Title: G Pages: 1 -->
<svg width="1098pt" height="501pt"
 viewBox="0.00 0.00 1098.00 501.00" xmlns="http://www.w3.org/2000/svg" xmlns:xlink="http://www.w3.org/1999/xlink">
<g id="graph0" class="graph" transform="scale(1 1) rotate(0) translate(4 497)">
<title>G</title>
<polygon fill="white" stroke="none" points="-4,4 -4,-497 1094,-497 1094,4 -4,4"/>
<!-- decl0 -->
<g id="node1" class="node">
<title>decl0</title>
<polygon fill="none" stroke="black" points="527.25,-389 527.25,-418.5 770.5,-418.5 770.5,-389 527.25,-389"/>
<text text-anchor="start" x="532.25" y="-400.2" font-family="Times,serif" font-size="14.00">enum MyGame.Sample.Color : int8</text>
<polygon fill="none" stroke="black" points="527.25,-359.5 527.25,-389 665.38,-389 665.38,-359.5 527.25,-359.5"/>
<text text-anchor="start" x="583.94" y="-370.7" font-family="Times,serif" font-size="14.00">Red</text>
<polygon fill="none" stroke="black" points="665.38,-359.5 665.38,-389 770.5,-389 770.5,-359.5 665.38,-359.5"/>
<text text-anchor="start" x="714.19" y="-370.7" font-family="Times,serif" font-size="14.00">0</text>
<polygon fill="none" stroke="black" points="527.25,-330 527.25,-359.5 665.38,-359.5 665.38,-330 527.25,-330"/>
<text text-anchor="start" x="576.06" y="-341.2" font-family="Times,serif" font-size="14.00">Green</text>
<polygon fill="none" stroke="black" points="665.38,-330 665.38,-359.5 770.5,-359.5 770.5,-330 665.38,-330"/>
<text text-anchor="start" x="714.19" y="-341.2" font-family="Times,serif" font-size="14.00">1</text>
<polygon fill="none" stroke="black" points="527.25,-300.5 527.25,-330 665.38,-330 665.38,-300.5 527.25,-300.5"/>
<text text-anchor="start" x="581.31" y="-311.7" font-family="Times,serif" font-size="14.00">Blue</text>
<polygon fill="none" stroke="black" points="665.38,-300.5 665.38,-330 770.5,-330 770.5,-300.5 665.38,-300.5"/>
<text text-anchor="start" x="714.19" y="-311.7" font-family="Times,serif" font-size="14.00">2</text>
</g>
<!-- decl1 -->
<g id="node2" class="node">
<title>decl1</title>
<polygon fill="none" stroke="black" points="526,-33.5 526,-63 771.75,-63 771.75,-33.5 526,-33.5"/>
<text text-anchor="start" x="531.12" y="-44.7" font-family="Times,serif" font-size="14.00">union MyGame.Sample.Equipment</text>
<polygon fill="none" stroke="black" points="526,-4 526,-33.5 590.75,-33.5 590.75,-4 526,-4"/>
<text text-anchor="start" x="531" y="-15.2" font-family="Times,serif" font-size="14.00">Weapon</text>
<polygon fill="none" stroke="black" points="590.75,-4 590.75,-33.5 771.75,-33.5 771.75,-4 590.75,-4"/>
<text text-anchor="start" x="595.75" y="-15.2" font-family="Times,serif" font-size="14.00">MyGame.Sample.Weapon</text>
</g>
<!-- decl4 -->
<g id="node3" class="node">
<title>decl4</title>
<polygon fill="none" stroke="black" points="823.75,-129.25 823.75,-158.75 1082,-158.75 1082,-129.25 823.75,-129.25"/>
<text text-anchor="start" x="848.62" y="-140.45" font-family="Times,serif" font-size="14.00">table MyGame.Sample.Weapon</text>
<polygon fill="none" stroke="black" points="823.75,-99.75 823.75,-129.25 841.25,-129.25 841.25,-99.75 823.75,-99.75"/>
<text text-anchor="start" x="828.75" y="-110.95" font-family="Times,serif" font-size="14.00">0</text>
<polygon fill="none" stroke="black" points="841.25,-99.75 841.25,-129.25 904.5,-129.25 904.5,-99.75 841.25,-99.75"/>
<text text-anchor="start" x="853.75" y="-110.95" font-family="Times,serif" font-size="14.00">name</text>
<polygon fill="none" stroke="black" points="904.5,-99.75 904.5,-129.25 1012.75,-129.25 1012.75,-99.75 904.5,-99.75"/>
<text text-anchor="start" x="909.5" y="-110.95" font-family="Times,serif" font-size="14.00">string (4 bytes)</text>
<polygon fill="none" stroke="black" points="1012.75,-99.75 1012.75,-129.25 1082,-129.25 1082,-99.75 1012.75,-99.75"/>
<text text-anchor="start" x="1019.25" y="-110.95" font-family="Times,serif" font-size="14.00">optional</text>
<polygon fill="none" stroke="black" points="823.75,-70.25 823.75,-99.75 841.25,-99.75 841.25,-70.25 823.75,-70.25"/>
<text text-anchor="start" x="828.75" y="-81.45" font-family="Times,serif" font-size="14.00">1</text>
<polygon fill="none" stroke="black" points="841.25,-70.25 841.25,-99.75 904.5,-99.75 904.5,-70.25 841.25,-70.25"/>
<text text-anchor="start" x="846.25" y="-81.45" font-family="Times,serif" font-size="14.00">damage</text>
<polygon fill="none" stroke="black" points="904.5,-70.25 904.5,-99.75 1012.75,-99.75 1012.75,-70.25 904.5,-70.25"/>
<text text-anchor="start" x="912.12" y="-81.45" font-family="Times,serif" font-size="14.00">int16 (2 bytes)</text>
<polygon fill="none" stroke="black" points="1012.75,-70.25 1012.75,-99.75 1082,-99.75 1082,-70.25 1012.75,-70.25"/>
<text text-anchor="start" x="1017.75" y="-81.45" font-family="Times,serif" font-size="14.00">default 0</text>
</g>
<!-- decl1&#45;&gt;decl4 -->
<g id="edge1" class="edge">
<title>decl1:e&#45;&gt;decl4:name</title>
<path fill="none" stroke="#6e4ac9" d="M772.75,-18.75C828.24,-18.75 772.47,-126.1 811.44,-142.03"/>
<polygon fill="#6e4ac9" stroke="#6e4ac9" points="810.81,-145.47 821.26,-143.74 812.01,-138.58 810.81,-145.47"/>
</g>
<!-- decl2 -->
<g id="node4" class="node">
<title>decl2</title>
<polygon fill="none" stroke="black" points="573.5,-206.75 573.5,-236.25 724.25,-236.25 724.25,-206.75 573.5,-206.75"/>
<text text-anchor="start" x="612.5" y="-217.95" font-family="Times,serif" font-size="14.00">struct Vec3</text>
<polygon fill="none" stroke="black" points="573.5,-177.25 573.5,-206.75 724.25,-206.75 724.25,-177.25 573.5,-177.25"/>
<text text-anchor="start" x="579.12" y="-188.45" font-family="Times,serif" font-size="14.00">size=12, alignment=4</text>
<polygon fill="none" stroke="black" points="573.5,-147.75 573.5,-177.25 591,-177.25 591,-147.75 573.5,-147.75"/>
<text text-anchor="start" x="578.5" y="-158.95" font-family="Times,serif" font-size="14.00">0</text>
<polygon fill="none" stroke="black" points="591,-147.75 591,-177.25 609.25,-177.25 609.25,-147.75 591,-147.75"/>
<text text-anchor="start" x="596" y="-158.95" font-family="Times,serif" font-size="14.00">x</text>
<polygon fill="none" stroke="black" points="609.25,-147.75 609.25,-177.25 724.25,-177.25 724.25,-147.75 609.25,-147.75"/>
<text text-anchor="start" x="614.25" y="-158.95" font-family="Times,serif" font-size="14.00">float32 (4 bytes)</text>
<polygon fill="none" stroke="black" points="573.5,-118.25 573.5,-147.75 591,-147.75 591,-118.25 573.5,-118.25"/>
<text text-anchor="start" x="578.5" y="-129.45" font-family="Times,serif" font-size="14.00">4</text>
<polygon fill="none" stroke="black" points="591,-118.25 591,-147.75 609.25,-147.75 609.25,-118.25 591,-118.25"/>
<text text-anchor="start" x="596" y="-129.45" font-family="Times,serif" font-size="14.00">y</text>
<polygon fill="none" stroke="black" points="609.25,-118.25 609.25,-147.75 724.25,-147.75 724.25,-118.25 609.25,-118.25"/>
<text text-anchor="start" x="614.25" y="-129.45" font-family="Times,serif" font-size="14.00">float32 (4 bytes)</text>
<polygon fill="none" stroke="black" points="573.5,-88.75 573.5,-118.25 591,-118.25 591,-88.75 573.5,-88.75"/>
<text text-anchor="start" x="578.5" y="-99.95" font-family="Times,serif" font-size="14.00">8</text>
<polygon fill="none" stroke="black" points="591,-88.75 591,-118.25 609.25,-118.25 609.25,-88.75 591,-88.75"/>
<text text-anchor="start" x="596.38" y="-99.95" font-family="Times,serif" font-size="14.00">z</text>
<polygon fill="none" stroke="black" points="609.25,-88.75 609.25,-118.25 724.25,-118.25 724.25,-88.75 609.25,-88.75"/>
<text text-anchor="start" x="614.25" y="-99.95" font-family="Times,serif" font-size="14.00">float32 (4 bytes)</text>
</g>
<!-- decl3 -->
<g id="node5" class="node">
<title>decl3</title>
<polygon fill="none" stroke="black" points="8,-459.5 8,-489 474,-489 474,-459.5 8,-459.5"/>
<text text-anchor="start" x="135.25" y="-470.7" font-family="Times,serif" font-size="14.00">table MyGame.Sample.Monster</text>
<polygon fill="none" stroke="black" points="8,-430 8,-459.5 44.25,-459.5 44.25,-430 8,-430"/>
<text text-anchor="start" x="22.38" y="-441.2" font-family="Times,serif" font-size="14.00">0</text>
<polygon fill="none" stroke="black" points="44.25,-430 44.25,-459.5 121,-459.5 121,-430 44.25,-430"/>
<text text-anchor="start" x="71.38" y="-441.2" font-family="Times,serif" font-size="14.00">pos</text>
<polygon fill="none" stroke="black" points="121,-430 121,-459.5 382.25,-459.5 382.25,-430 121,-430"/>
<text text-anchor="start" x="203.25" y="-441.2" font-family="Times,serif" font-size="14.00">Vec3 (12 bytes)</text>
<polygon fill="none" stroke="black" points="382.25,-430 382.25,-459.5 474,-459.5 474,-430 382.25,-430"/>
<text text-anchor="start" x="400" y="-441.2" font-family="Times,serif" font-size="14.00">optional</text>
<polygon fill="none" stroke="black" points="8,-400.5 8,-430 44.25,-430 44.25,-400.5 8,-400.5"/>
<text text-anchor="start" x="22.38" y="-411.7" font-family="Times,serif" font-size="14.00">1</text>
<polygon fill="none" stroke="black" points="44.25,-400.5 44.25,-430 121,-430 121,-400.5 44.25,-400.5"/>
<text text-anchor="start" x="63.12" y="-411.7" font-family="Times,serif" font-size="14.00">mana</text>
<polygon fill="none" stroke="black" points="121,-400.5 121,-430 382.25,-430 382.25,-400.5 121,-400.5"/>
<text text-anchor="start" x="205.12" y="-411.7" font-family="Times,serif" font-size="14.00">int16 (2 bytes)</text>
<polygon fill="none" stroke="black" points="382.25,-400.5 382.25,-430 474,-430 474,-400.5 382.25,-400.5"/>
<text text-anchor="start" x="391" y="-411.7" font-family="Times,serif" font-size="14.00">default 150</text>
<polygon fill="none" stroke="black" points="8,-371 8,-400.5 44.25,-400.5 44.25,-371 8,-371"/>
<text text-anchor="start" x="22.38" y="-382.2" font-family="Times,serif" font-size="14.00">2</text>
<polygon fill="none" stroke="black" points="44.25,-371 44.25,-400.5 121,-400.5 121,-371 44.25,-371"/>
<text text-anchor="start" x="74" y="-382.2" font-family="Times,serif" font-size="14.00">hp</text>
<polygon fill="none" stroke="black" points="121,-371 121,-400.5 382.25,-400.5 382.25,-371 121,-371"/>
<text text-anchor="start" x="205.12" y="-382.2" font-family="Times,serif" font-size="14.00">int16 (2 bytes)</text>
<polygon fill="none" stroke="black" points="382.25,-371 382.25,-400.5 474,-400.5 474,-371 382.25,-371"/>
<text text-anchor="start" x="391" y="-382.2" font-family="Times,serif" font-size="14.00">default 100</text>
<polygon fill="none" stroke="black" points="8,-341.5 8,-371 44.25,-371 44.25,-341.5 8,-341.5"/>
<text text-anchor="start" x="22.38" y="-352.7" font-family="Times,serif" font-size="14.00">3</text>
<polygon fill="none" stroke="black" points="44.25,-341.5 44.25,-371 121,-371 121,-341.5 44.25,-341.5"/>
<text text-anchor="start" x="63.5" y="-352.7" font-family="Times,serif" font-size="14.00">name</text>
<polygon fill="none" stroke="black" points="121,-341.5 121,-371 382.25,-371 382.25,-341.5 121,-341.5"/>
<text text-anchor="start" x="202.5" y="-352.7" font-family="Times,serif" font-size="14.00">string (4 bytes)</text>
<polygon fill="none" stroke="black" points="382.25,-341.5 382.25,-371 474,-371 474,-341.5 382.25,-341.5"/>
<text text-anchor="start" x="400" y="-352.7" font-family="Times,serif" font-size="14.00">optional</text>
<polygon fill="none" stroke="black" points="8,-312 8,-341.5 44.25,-341.5 44.25,-312 8,-312"/>
<text text-anchor="start" x="22.38" y="-323.2" font-family="Times,serif" font-size="14.00">5</text>
<polygon fill="none" stroke="black" points="44.25,-312 44.25,-341.5 121,-341.5 121,-312 44.25,-312"/>
<text text-anchor="start" x="49.25" y="-323.2" font-family="Times,serif" font-size="14.00">inventory</text>
<polygon fill="none" stroke="black" points="121,-312 121,-341.5 382.25,-341.5 382.25,-312 121,-312"/>
<text text-anchor="start" x="199.12" y="-323.2" font-family="Times,serif" font-size="14.00">[uint8] (4 bytes)</text>
<polygon fill="none" stroke="black" points="382.25,-312 382.25,-341.5 474,-341.5 474,-312 382.25,-312"/>
<text text-anchor="start" x="400" y="-323.2" font-family="Times,serif" font-size="14.00">optional</text>
<polygon fill="none" stroke="black" points="8,-282.5 8,-312 44.25,-312 44.25,-282.5 8,-282.5"/>
<text text-anchor="start" x="22.38" y="-293.7" font-family="Times,serif" font-size="14.00">6</text>
<polygon fill="none" stroke="black" points="44.25,-282.5 44.25,-312 121,-312 121,-282.5 44.25,-282.5"/>
<text text-anchor="start" x="65.38" y="-293.7" font-family="Times,serif" font-size="14.00">color</text>
<polygon fill="none" stroke="black" points="121,-282.5 121,-312 382.25,-312 382.25,-282.5 121,-282.5"/>
<text text-anchor="start" x="145.5" y="-293.7" font-family="Times,serif" font-size="14.00">MyGame.Sample.Color (1 bytes)</text>
<polygon fill="none" stroke="black" points="382.25,-282.5 382.25,-312 474,-312 474,-282.5 382.25,-282.5"/>
<text text-anchor="start" x="387.25" y="-293.7" font-family="Times,serif" font-size="14.00">default Blue</text>
<polygon fill="none" stroke="black" points="8,-253 8,-282.5 44.25,-282.5 44.25,-253 8,-253"/>
<text text-anchor="start" x="22.38" y="-264.2" font-family="Times,serif" font-size="14.00">7</text>
<polygon fill="none" stroke="black" points="44.25,-253 44.25,-282.5 121,-282.5 121,-253 44.25,-253"/>
<text text-anchor="start" x="53" y="-264.2" font-family="Times,serif" font-size="14.00">weapons</text>
<polygon fill="none" stroke="black" points="121,-253 121,-282.5 382.25,-282.5 382.25,-253 121,-253"/>
<text text-anchor="start" x="131.25" y="-264.2" font-family="Times,serif" font-size="14.00">[MyGame.Sample.Weapon] (4 bytes)</text>
<polygon fill="none" stroke="black" points="382.25,-253 382.25,-282.5 474,-282.5 474,-253 382.25,-253"/>
<text text-anchor="start" x="400" y="-264.2" font-family="Times,serif" font-size="14.00">optional</text>
<polygon fill="none" stroke="black" points="8,-223.5 8,-253 44.25,-253 44.25,-223.5 8,-223.5"/>
<text text-anchor="start" x="13" y="-234.7" font-family="Times,serif" font-size="14.00">8 / 9</text>
<polygon fill="none" stroke="black" points="44.25,-223.5 44.25,-253 121,-253 121,-223.5 44.25,-223.5"/>
<text text-anchor="start" x="51.88" y="-234.7" font-family="Times,serif" font-size="14.00">equipped</text>
<polygon fill="none" stroke="black" points="121,-223.5 121,-253 382.25,-253 382.25,-223.5 121,-223.5"/>
<text text-anchor="start" x="126" y="-234.7" font-family="Times,serif" font-size="14.00">MyGame.Sample.Equipment (4 bytes)</text>
<polygon fill="none" stroke="black" points="382.25,-223.5 382.25,-253 474,-253 474,-223.5 382.25,-223.5"/>
<text text-anchor="start" x="400" y="-234.7" font-family="Times,serif" font-size="14.00">optional</text>
<polygon fill="none" stroke="black" points="8,-194 8,-223.5 44.25,-223.5 44.25,-194 8,-194"/>
<text text-anchor="start" x="18.62" y="-205.2" font-family="Times,serif" font-size="14.00">10</text>
<polygon fill="none" stroke="black" points="44.25,-194 44.25,-223.5 121,-223.5 121,-194 44.25,-194"/>
<text text-anchor="start" x="67.25" y="-205.2" font-family="Times,serif" font-size="14.00">path</text>
<polygon fill="none" stroke="black" points="121,-194 121,-223.5 382.25,-223.5 382.25,-194 121,-194"/>
<text text-anchor="start" x="201.75" y="-205.2" font-family="Times,serif" font-size="14.00">[Vec3] (4 bytes)</text>
<polygon fill="none" stroke="black" points="382.25,-194 382.25,-223.5 474,-223.5 474,-194 382.25,-194"/>
<text text-anchor="start" x="400" y="-205.2" font-family="Times,serif" font-size="14.00">optional</text>
</g>
<!-- decl3&#45;&gt;decl0 -->
<g id="edge3" class="edge">
<title>decl3:e&#45;&gt;decl0:name</title>
<path fill="none" stroke="#4410d3" d="M475,-297.25C523.22,-297.25 481.83,-386.99 515.35,-401.72"/>
<polygon fill="#4410d3" stroke="#4410d3" points="514.29,-405.08 524.76,-403.47 515.57,-398.2 514.29,-405.08"/>
</g>
<!-- decl3&#45;&gt;decl1 -->
<g id="edge5" class="edge">
<title>decl3:e&#45;&gt;decl1:name</title>
<path fill="none" stroke="#f20444" d="M475,-238.25C558.06,-238.25 449.35,-66.35 513.68,-49.56"/>
<polygon fill="#f20444" stroke="#f20444" points="513.97,-53.05 523.5,-48.42 513.16,-46.1 513.97,-53.05"/>
</g>
<!-- decl3&#45;&gt;decl4 -->
<g id="edge4" class="edge">
<title>decl3:e&#45;&gt;decl4:name</title>
<path fill="none" stroke="#47a3ad" d="M475,-267.75C542.84,-267.75 724.6,-289.02 779.75,-249.5 817.21,-222.66 780.16,-157.28 811.37,-145.75"/>
<polygon fill="#47a3ad" stroke="#47a3ad" points="811.9,-149.21 821.25,-144.23 810.84,-142.29 811.9,-149.21"/>
</g>
<!-- decl3&#45;&gt;decl2 -->
<g id="edge2" class="edge">
<title>decl3:e&#45;&gt;decl2:name</title>
<path fill="none" stroke="#5216ad" d="M475,-444.75C561.69,-444.75 467.33,-324.84 518,-254.5 532.1,-234.94 541.17,-224.76 561.04,-222.17"/>
<polygon fill="#5216ad" stroke="#5216ad" points="561.21,-225.67 570.99,-221.59 560.8,-218.68 561.21,-225.67"/>
</g>
<!-- decl3&#45;&gt;decl2 -->
<g id="edge6" class="edge">
<title>decl3:e&#45;&gt;decl2:name</title>
<path fill="none" stroke="#053975" d="M475,-208.75C514.61,-208.75 526.61,-219.22 561.04,-221.18"/>
<polygon fill="#053975" stroke="#053975" points="560.89,-224.68 570.99,-221.46 561.09,-217.68 560.89,-224.68"/>
</g>
</g>
</svg>
