<?xml version="1.0" encoding="UTF-8" standalone="no"?>
<!DOCTYPE svg PUBLIC "-//W3C//DTD SVG 1.1//EN"
 "http://www.w3.org/Graphics/SVG/1.1/DTD/svg11.dtd">
<!-- Generated by graphviz version 12.2.1 (0)
 -->
<!-- Title: G Pages: 1 -->
<svg width="1124pt" height="519pt"
 viewBox="0.00 0.00 1123.50 519.25" xmlns="http://www.w3.org/2000/svg" xmlns:xlink="http://www.w3.org/1999/xlink">
<g id="graph0" class="graph" transform="scale(1 1) rotate(0) translate(4 515.25)">
<title>G</title>
<polygon fill="white" stroke="none" points="-4,4 -4,-515.25 1119.5,-515.25 1119.5,4 -4,4"/>
<!-- decl0 -->
<g id="node1" class="node">
<title>decl0</title>
<polygon fill="none" stroke="black" points="552.75,-477.75 552.75,-507.25 796,-507.25 796,-477.75 552.75,-477.75"/>
<text text-anchor="start" x="557.75" y="-488.95" font-family="Times,serif" font-size="14.00">enum MyGame.Sample.Color : int8</text>
<polygon fill="none" stroke="black" points="552.75,-448.25 552.75,-477.75 690.88,-477.75 690.88,-448.25 552.75,-448.25"/>
<text text-anchor="start" x="609.44" y="-459.45" font-family="Times,serif" font-size="14.00">Red</text>
<polygon fill="none" stroke="black" points="690.88,-448.25 690.88,-477.75 796,-477.75 796,-448.25 690.88,-448.25"/>
<text text-anchor="start" x="739.69" y="-459.45" font-family="Times,serif" font-size="14.00">0</text>
<polygon fill="none" stroke="black" points="552.75,-418.75 552.75,-448.25 690.88,-448.25 690.88,-418.75 552.75,-418.75"/>
<text text-anchor="start" x="601.56" y="-429.95" font-family="Times,serif" font-size="14.00">Green</text>
<polygon fill="none" stroke="black" points="690.88,-418.75 690.88,-448.25 796,-448.25 796,-418.75 690.88,-418.75"/>
<text text-anchor="start" x="739.69" y="-429.95" font-family="Times,serif" font-size="14.00">1</text>
<polygon fill="none" stroke="black" points="552.75,-389.25 552.75,-418.75 690.88,-418.75 690.88,-389.25 552.75,-389.25"/>
<text text-anchor="start" x="606.81" y="-400.45" font-family="Times,serif" font-size="14.00">Blue</text>
<polygon fill="none" stroke="black" points="690.88,-389.25 690.88,-418.75 796,-418.75 796,-389.25 690.88,-389.25"/>
<text text-anchor="start" x="739.69" y="-400.45" font-family="Times,serif" font-size="14.00">2</text>
</g>
<!-- decl1 -->
<g id="node2" class="node">
<title>decl1</title>
<polygon fill="none" stroke="black" points="551.5,-122 551.5,-151.5 797.25,-151.5 797.25,-122 551.5,-122"/>
<text text-anchor="start" x="556.62" y="-133.2" font-family="Times,serif" font-size="14.00">union MyGame.Sample.Equipment</text>
<polygon fill="none" stroke="black" points="551.5,-92.5 551.5,-122 616.25,-122 616.25,-92.5 551.5,-92.5"/>
<text text-anchor="start" x="556.5" y="-103.7" font-family="Times,serif" font-size="14.00">Weapon</text>
<polygon fill="none" stroke="black" points="616.25,-92.5 616.25,-122 797.25,-122 797.25,-92.5 616.25,-92.5"/>
<text text-anchor="start" x="621.25" y="-103.7" font-family="Times,serif" font-size="14.00">MyGame.Sample.Weapon</text>
<polygon fill="none" stroke="black" points="551.5,-63 551.5,-92.5 616.25,-92.5 616.25,-63 551.5,-63"/>
<text text-anchor="start" x="563.25" y="-74.2" font-family="Times,serif" font-size="14.00">Shield</text>
<polygon fill="none" stroke="black" points="616.25,-63 616.25,-92.5 797.25,-92.5 797.25,-63 616.25,-63"/>
<text text-anchor="start" x="627.25" y="-74.2" font-family="Times,serif" font-size="14.00">MyGame.Sample.Shield</text>
</g>
<!-- decl4 -->
<g id="node3" class="node">
<title>decl4</title>
<polygon fill="none" stroke="black" points="849.25,-260 849.25,-289.5 1107.5,-289.5 1107.5,-260 849.25,-260"/>
<text text-anchor="start" x="874.12" y="-271.2" font-family="Times,serif" font-size="14.00">table MyGame.Sample.Weapon</text>
<polygon fill="none" stroke="black" points="849.25,-230.5 849.25,-260 866.75,-260 866.75,-230.5 849.25,-230.5"/>
<text text-anchor="start" x="854.25" y="-241.7" font-family="Times,serif" font-size="14.00">0</text>
<polygon fill="none" stroke="black" points="866.75,-230.5 866.75,-260 930,-260 930,-230.5 866.75,-230.5"/>
<text text-anchor="start" x="879.25" y="-241.7" font-family="Times,serif" font-size="14.00">name</text>
<polygon fill="none" stroke="black" points="930,-230.5 930,-260 1038.25,-260 1038.25,-230.5 930,-230.5"/>
<text text-anchor="start" x="935" y="-241.7" font-family="Times,serif" font-size="14.00">string (4 bytes)</text>
<polygon fill="none" stroke="black" points="1038.25,-230.5 1038.25,-260 1107.5,-260 1107.5,-230.5 1038.25,-230.5"/>
<text text-anchor="start" x="1044.75" y="-241.7" font-family="Times,serif" font-size="14.00">optional</text>
<polygon fill="none" stroke="black" points="849.25,-201 849.25,-230.5 866.75,-230.5 866.75,-201 849.25,-201"/>
<text text-anchor="start" x="854.25" y="-212.2" font-family="Times,serif" font-size="14.00">1</text>
<polygon fill="none" stroke="black" points="866.75,-201 866.75,-230.5 930,-230.5 930,-201 866.75,-201"/>
<text text-anchor="start" x="871.75" y="-212.2" font-family="Times,serif" font-size="14.00">damage</text>
<polygon fill="none" stroke="black" points="930,-201 930,-230.5 1038.25,-230.5 1038.25,-201 930,-201"/>
<text text-anchor="start" x="937.62" y="-212.2" font-family="Times,serif" font-size="14.00">int16 (2 bytes)</text>
<polygon fill="none" stroke="black" points="1038.25,-201 1038.25,-230.5 1107.5,-230.5 1107.5,-201 1038.25,-201"/>
<text text-anchor="start" x="1043.25" y="-212.2" font-family="Times,serif" font-size="14.00">default 0</text>
</g>
<!-- decl1&#45;&gt;decl4 -->
<g id="edge1" class="edge">
<title>decl1:e&#45;&gt;decl4:name</title>
<path fill="none" stroke="#b819d1" d="M798.25,-107.25C871.69,-107.25 781.54,-256.93 837.09,-273.3"/>
<polygon fill="#b819d1" stroke="#b819d1" points="836.38,-276.74 846.75,-274.56 837.28,-269.8 836.38,-276.74"/>
</g>
<!-- decl5 -->
<g id="node4" class="node">
<title>decl5</title>
<polygon fill="none" stroke="black" points="854.12,-63 854.12,-92.5 1102.62,-92.5 1102.62,-63 854.12,-63"/>
<text text-anchor="start" x="880.12" y="-74.2" font-family="Times,serif" font-size="14.00">table MyGame.Sample.Shield</text>
<polygon fill="none" stroke="black" points="854.12,-33.5 854.12,-63 871.62,-63 871.62,-33.5 854.12,-33.5"/>
<text text-anchor="start" x="859.12" y="-44.7" font-family="Times,serif" font-size="14.00">0</text>
<polygon fill="none" stroke="black" points="871.62,-33.5 871.62,-63 925.12,-63 925.12,-33.5 871.62,-33.5"/>
<text text-anchor="start" x="879.25" y="-44.7" font-family="Times,serif" font-size="14.00">name</text>
<polygon fill="none" stroke="black" points="925.12,-33.5 925.12,-63 1033.38,-63 1033.38,-33.5 925.12,-33.5"/>
<text text-anchor="start" x="930.12" y="-44.7" font-family="Times,serif" font-size="14.00">string (4 bytes)</text>
<polygon fill="none" stroke="black" points="1033.38,-33.5 1033.38,-63 1102.62,-63 1102.62,-33.5 1033.38,-33.5"/>
<text text-anchor="start" x="1039.88" y="-44.7" font-family="Times,serif" font-size="14.00">optional</text>
<polygon fill="none" stroke="black" points="854.12,-4 854.12,-33.5 871.62,-33.5 871.62,-4 854.12,-4"/>
<text text-anchor="start" x="859.12" y="-15.2" font-family="Times,serif" font-size="14.00">1</text>
<polygon fill="none" stroke="black" points="871.62,-4 871.62,-33.5 925.12,-33.5 925.12,-4 871.62,-4"/>
<text text-anchor="start" x="876.62" y="-15.2" font-family="Times,serif" font-size="14.00">armor</text>
<polygon fill="none" stroke="black" points="925.12,-4 925.12,-33.5 1033.38,-33.5 1033.38,-4 925.12,-4"/>
<text text-anchor="start" x="932.75" y="-15.2" font-family="Times,serif" font-size="14.00">int16 (2 bytes)</text>
<polygon fill="none" stroke="black" points="1033.38,-4 1033.38,-33.5 1102.62,-33.5 1102.62,-4 1033.38,-4"/>
<text text-anchor="start" x="1038.38" y="-15.2" font-family="Times,serif" font-size="14.00">default 0</text>
</g>
<!-- decl1&#45;&gt;decl5 -->
<g id="edge2" class="edge">
<title>decl1:e&#45;&gt;decl5:name</title>
<path fill="none" stroke="#942dd8" d="M798.25,-77.75C818.45,-77.75 826.1,-77.75 841.98,-77.75"/>
<polygon fill="#942dd8" stroke="#942dd8" points="841.61,-81.25 851.61,-77.75 841.61,-74.25 841.61,-81.25"/>
</g>
<!-- decl2 -->
<g id="node5" class="node">
<title>decl2</title>
<polygon fill="none" stroke="black" points="599,-295.5 599,-325 749.75,-325 749.75,-295.5 599,-295.5"/>
<text text-anchor="start" x="638" y="-306.7" font-family="Times,serif" font-size="14.00">struct Vec3</text>
<polygon fill="none" stroke="black" points="599,-266 599,-295.5 749.75,-295.5 749.75,-266 599,-266"/>
<text text-anchor="start" x="604.62" y="-277.2" font-family="Times,serif" font-size="14.00">size=12, alignment=4</text>
<polygon fill="none" stroke="black" points="599,-236.5 599,-266 616.5,-266 616.5,-236.5 599,-236.5"/>
<text text-anchor="start" x="604" y="-247.7" font-family="Times,serif" font-size="14.00">0</text>
<polygon fill="none" stroke="black" points="616.5,-236.5 616.5,-266 634.75,-266 634.75,-236.5 616.5,-236.5"/>
<text text-anchor="start" x="621.5" y="-247.7" font-family="Times,serif" font-size="14.00">x</text>
<polygon fill="none" stroke="black" points="634.75,-236.5 634.75,-266 749.75,-266 749.75,-236.5 634.75,-236.5"/>
<text text-anchor="start" x="639.75" y="-247.7" font-family="Times,serif" font-size="14.00">float32 (4 bytes)</text>
<polygon fill="none" stroke="black" points="599,-207 599,-236.5 616.5,-236.5 616.5,-207 599,-207"/>
<text text-anchor="start" x="604" y="-218.2" font-family="Times,serif" font-size="14.00">4</text>
<polygon fill="none" stroke="black" points="616.5,-207 616.5,-236.5 634.75,-236.5 634.75,-207 616.5,-207"/>
<text text-anchor="start" x="621.5" y="-218.2" font-family="Times,serif" font-size="14.00">y</text>
<polygon fill="none" stroke="black" points="634.75,-207 634.75,-236.5 749.75,-236.5 749.75,-207 634.75,-207"/>
<text text-anchor="start" x="639.75" y="-218.2" font-family="Times,serif" font-size="14.00">float32 (4 bytes)</text>
<polygon fill="none" stroke="black" points="599,-177.5 599,-207 616.5,-207 616.5,-177.5 599,-177.5"/>
<text text-anchor="start" x="604" y="-188.7" font-family="Times,serif" font-size="14.00">8</text>
<polygon fill="none" stroke="black" points="616.5,-177.5 616.5,-207 634.75,-207 634.75,-177.5 616.5,-177.5"/>
<text text-anchor="start" x="621.88" y="-188.7" font-family="Times,serif" font-size="14.00">z</text>
<polygon fill="none" stroke="black" points="634.75,-177.5 634.75,-207 749.75,-207 749.75,-177.5 634.75,-177.5"/>
<text text-anchor="start" x="639.75" y="-188.7" font-family="Times,serif" font-size="14.00">float32 (4 bytes)</text>
</g>
<!-- decl3 -->
<g id="node6" class="node">
<title>decl3</title>
<polygon fill="none" stroke="black" points="8,-468 8,-497.5 499.5,-497.5 499.5,-468 8,-468"/>
<text text-anchor="start" x="148" y="-479.2" font-family="Times,serif" font-size="14.00">table MyGame.Sample.Monster</text>
<polygon fill="none" stroke="black" points="8,-438.5 8,-468 59.25,-468 59.25,-438.5 8,-438.5"/>
<text text-anchor="start" x="29.88" y="-449.7" font-family="Times,serif" font-size="14.00">0</text>
<polygon fill="none" stroke="black" points="59.25,-438.5 59.25,-468 136,-468 136,-438.5 59.25,-438.5"/>
<text text-anchor="start" x="86.38" y="-449.7" font-family="Times,serif" font-size="14.00">pos</text>
<polygon fill="none" stroke="black" points="136,-438.5 136,-468 407.75,-468 407.75,-438.5 136,-438.5"/>
<text text-anchor="start" x="223.5" y="-449.7" font-family="Times,serif" font-size="14.00">Vec3 (12 bytes)</text>
<polygon fill="none" stroke="black" points="407.75,-438.5 407.75,-468 499.5,-468 499.5,-438.5 407.75,-438.5"/>
<text text-anchor="start" x="425.5" y="-449.7" font-family="Times,serif" font-size="14.00">optional</text>
<polygon fill="none" stroke="black" points="8,-409 8,-438.5 59.25,-438.5 59.25,-409 8,-409"/>
<text text-anchor="start" x="29.88" y="-420.2" font-family="Times,serif" font-size="14.00">1</text>
<polygon fill="none" stroke="black" points="59.25,-409 59.25,-438.5 136,-438.5 136,-409 59.25,-409"/>
<text text-anchor="start" x="78.12" y="-420.2" font-family="Times,serif" font-size="14.00">mana</text>
<polygon fill="none" stroke="black" points="136,-409 136,-438.5 407.75,-438.5 407.75,-409 136,-409"/>
<text text-anchor="start" x="225.38" y="-420.2" font-family="Times,serif" font-size="14.00">int16 (2 bytes)</text>
<polygon fill="none" stroke="black" points="407.75,-409 407.75,-438.5 499.5,-438.5 499.5,-409 407.75,-409"/>
<text text-anchor="start" x="416.5" y="-420.2" font-family="Times,serif" font-size="14.00">default 150</text>
<polygon fill="none" stroke="black" points="8,-379.5 8,-409 59.25,-409 59.25,-379.5 8,-379.5"/>
<text text-anchor="start" x="29.88" y="-390.7" font-family="Times,serif" font-size="14.00">2</text>
<polygon fill="none" stroke="black" points="59.25,-379.5 59.25,-409 136,-409 136,-379.5 59.25,-379.5"/>
<text text-anchor="start" x="89" y="-390.7" font-family="Times,serif" font-size="14.00">hp</text>
<polygon fill="none" stroke="black" points="136,-379.5 136,-409 407.75,-409 407.75,-379.5 136,-379.5"/>
<text text-anchor="start" x="225.38" y="-390.7" font-family="Times,serif" font-size="14.00">int16 (2 bytes)</text>
<polygon fill="none" stroke="black" points="407.75,-379.5 407.75,-409 499.5,-409 499.5,-379.5 407.75,-379.5"/>
<text text-anchor="start" x="416.5" y="-390.7" font-family="Times,serif" font-size="14.00">default 100</text>
<polygon fill="none" stroke="black" points="8,-350 8,-379.5 59.25,-379.5 59.25,-350 8,-350"/>
<text text-anchor="start" x="29.88" y="-361.2" font-family="Times,serif" font-size="14.00">3</text>
<polygon fill="none" stroke="black" points="59.25,-350 59.25,-379.5 136,-379.5 136,-350 59.25,-350"/>
<text text-anchor="start" x="78.5" y="-361.2" font-family="Times,serif" font-size="14.00">name</text>
<polygon fill="none" stroke="black" points="136,-350 136,-379.5 407.75,-379.5 407.75,-350 136,-350"/>
<text text-anchor="start" x="222.75" y="-361.2" font-family="Times,serif" font-size="14.00">string (4 bytes)</text>
<polygon fill="none" stroke="black" points="407.75,-350 407.75,-379.5 499.5,-379.5 499.5,-350 407.75,-350"/>
<text text-anchor="start" x="425.5" y="-361.2" font-family="Times,serif" font-size="14.00">optional</text>
<polygon fill="none" stroke="black" points="8,-320.5 8,-350 59.25,-350 59.25,-320.5 8,-320.5"/>
<text text-anchor="start" x="29.88" y="-331.7" font-family="Times,serif" font-size="14.00">5</text>
<polygon fill="none" stroke="black" points="59.25,-320.5 59.25,-350 136,-350 136,-320.5 59.25,-320.5"/>
<text text-anchor="start" x="64.25" y="-331.7" font-family="Times,serif" font-size="14.00">inventory</text>
<polygon fill="none" stroke="black" points="136,-320.5 136,-350 407.75,-350 407.75,-320.5 136,-320.5"/>
<text text-anchor="start" x="219.38" y="-331.7" font-family="Times,serif" font-size="14.00">[uint8] (4 bytes)</text>
<polygon fill="none" stroke="black" points="407.75,-320.5 407.75,-350 499.5,-350 499.5,-320.5 407.75,-320.5"/>
<text text-anchor="start" x="425.5" y="-331.7" font-family="Times,serif" font-size="14.00">optional</text>
<polygon fill="none" stroke="black" points="8,-291 8,-320.5 59.25,-320.5 59.25,-291 8,-291"/>
<text text-anchor="start" x="29.88" y="-302.2" font-family="Times,serif" font-size="14.00">6</text>
<polygon fill="none" stroke="black" points="59.25,-291 59.25,-320.5 136,-320.5 136,-291 59.25,-291"/>
<text text-anchor="start" x="80.38" y="-302.2" font-family="Times,serif" font-size="14.00">color</text>
<polygon fill="none" stroke="black" points="136,-291 136,-320.5 407.75,-320.5 407.75,-291 136,-291"/>
<text text-anchor="start" x="165.75" y="-302.2" font-family="Times,serif" font-size="14.00">MyGame.Sample.Color (1 bytes)</text>
<polygon fill="none" stroke="black" points="407.75,-291 407.75,-320.5 499.5,-320.5 499.5,-291 407.75,-291"/>
<text text-anchor="start" x="412.75" y="-302.2" font-family="Times,serif" font-size="14.00">default Blue</text>
<polygon fill="none" stroke="black" points="8,-261.5 8,-291 59.25,-291 59.25,-261.5 8,-261.5"/>
<text text-anchor="start" x="29.88" y="-272.7" font-family="Times,serif" font-size="14.00">7</text>
<polygon fill="none" stroke="black" points="59.25,-261.5 59.25,-291 136,-291 136,-261.5 59.25,-261.5"/>
<text text-anchor="start" x="68" y="-272.7" font-family="Times,serif" font-size="14.00">weapons</text>
<polygon fill="none" stroke="black" points="136,-261.5 136,-291 407.75,-291 407.75,-261.5 136,-261.5"/>
<text text-anchor="start" x="151.5" y="-272.7" font-family="Times,serif" font-size="14.00">[MyGame.Sample.Weapon] (4 bytes)</text>
<polygon fill="none" stroke="black" points="407.75,-261.5 407.75,-291 499.5,-291 499.5,-261.5 407.75,-261.5"/>
<text text-anchor="start" x="425.5" y="-272.7" font-family="Times,serif" font-size="14.00">optional</text>
<polygon fill="none" stroke="black" points="8,-232 8,-261.5 59.25,-261.5 59.25,-232 8,-232"/>
<text text-anchor="start" x="20.5" y="-243.2" font-family="Times,serif" font-size="14.00">8 / 9</text>
<polygon fill="none" stroke="black" points="59.25,-232 59.25,-261.5 136,-261.5 136,-232 59.25,-232"/>
<text text-anchor="start" x="66.88" y="-243.2" font-family="Times,serif" font-size="14.00">equipped</text>
<polygon fill="none" stroke="black" points="136,-232 136,-261.5 407.75,-261.5 407.75,-232 136,-232"/>
<text text-anchor="start" x="146.25" y="-243.2" font-family="Times,serif" font-size="14.00">MyGame.Sample.Equipment (5 bytes)</text>
<polygon fill="none" stroke="black" points="407.75,-232 407.75,-261.5 499.5,-261.5 499.5,-232 407.75,-232"/>
<text text-anchor="start" x="425.5" y="-243.2" font-family="Times,serif" font-size="14.00">optional</text>
<polygon fill="none" stroke="black" points="8,-202.5 8,-232 59.25,-232 59.25,-202.5 8,-202.5"/>
<text text-anchor="start" x="13" y="-213.7" font-family="Times,serif" font-size="14.00">10 / 11</text>
<polygon fill="none" stroke="black" points="59.25,-202.5 59.25,-232 136,-232 136,-202.5 59.25,-202.5"/>
<text text-anchor="start" x="78.88" y="-213.7" font-family="Times,serif" font-size="14.00">drops</text>
<polygon fill="none" stroke="black" points="136,-202.5 136,-232 407.75,-232 407.75,-202.5 136,-202.5"/>
<text text-anchor="start" x="141" y="-213.7" font-family="Times,serif" font-size="14.00">[MyGame.Sample.Equipment] (8 bytes)</text>
<polygon fill="none" stroke="black" points="407.75,-202.5 407.75,-232 499.5,-232 499.5,-202.5 407.75,-202.5"/>
<text text-anchor="start" x="425.5" y="-213.7" font-family="Times,serif" font-size="14.00">optional</text>
<polygon fill="none" stroke="black" points="8,-173 8,-202.5 59.25,-202.5 59.25,-173 8,-173"/>
<text text-anchor="start" x="26.12" y="-184.2" font-family="Times,serif" font-size="14.00">12</text>
<polygon fill="none" stroke="black" points="59.25,-173 59.25,-202.5 136,-202.5 136,-173 59.25,-173"/>
<text text-anchor="start" x="82.25" y="-184.2" font-family="Times,serif" font-size="14.00">path</text>
<polygon fill="none" stroke="black" points="136,-173 136,-202.5 407.75,-202.5 407.75,-173 136,-173"/>
<text text-anchor="start" x="222" y="-184.2" font-family="Times,serif" font-size="14.00">[Vec3] (4 bytes)</text>
<polygon fill="none" stroke="black" points="407.75,-173 407.75,-202.5 499.5,-202.5 499.5,-173 407.75,-173"/>
<text text-anchor="start" x="425.5" y="-184.2" font-family="Times,serif" font-size="14.00">optional</text>
</g>
<!-- decl3&#45;&gt;decl0 -->
<g id="edge4" class="edge">
<title>decl3:e&#45;&gt;decl0:name</title>
<path fill="none" stroke="#fc16d6" d="M500.5,-305.75C582.37,-305.75 476.99,-474.71 540.57,-491.21"/>
<polygon fill="#fc16d6" stroke="#fc16d6" points="539.91,-494.65 550.25,-492.33 540.71,-487.7 539.91,-494.65"/>
</g>
<!-- decl3&#45;&gt;decl1 -->
<g id="edge6" class="edge">
<title>decl3:e&#45;&gt;decl1:name</title>
<path fill="none" stroke="#ed6a61" d="M500.5,-246.75C549.8,-246.75 505.47,-154.06 539.4,-138.85"/>
<polygon fill="#ed6a61" stroke="#ed6a61" points="539.84,-142.33 549.01,-137.03 538.54,-135.45 539.84,-142.33"/>
</g>
<!-- decl3&#45;&gt;decl1 -->
<g id="edge7" class="edge">
<title>decl3:e&#45;&gt;decl1:name</title>
<path fill="none" stroke="#f263e3" d="M500.5,-217.25C538.18,-217.25 514.75,-152.84 539.54,-139.25"/>
<polygon fill="#f263e3" stroke="#f263e3" points="540.05,-142.72 549.02,-137.09 538.5,-135.9 540.05,-142.72"/>
</g>
<!-- decl3&#45;&gt;decl4 -->
<g id="edge5" class="edge">
<title>decl3:e&#45;&gt;decl4:name</title>
<path fill="none" stroke="#0c72cc" d="M500.5,-276.25C534.03,-276.25 513.79,-322.7 543.5,-338.25 595.03,-365.22 753.87,-365.51 805.25,-338.25 831.36,-324.4 818.89,-286.82 837.35,-277.08"/>
<polygon fill="#0c72cc" stroke="#0c72cc" points="837.72,-280.58 846.77,-275.07 836.26,-273.73 837.72,-280.58"/>
</g>
<!-- decl3&#45;&gt;decl2 -->
<g id="edge3" class="edge">
<title>decl3:e&#45;&gt;decl2:name</title>
<path fill="none" stroke="#3b1bad" d="M500.5,-453.25C552.99,-453.25 509.7,-383.41 543.5,-343.25 559.02,-324.8 567.1,-313.84 586.64,-311"/>
<polygon fill="#3b1bad" stroke="#3b1bad" points="586.74,-314.5 596.49,-310.35 586.28,-307.51 586.74,-314.5"/>
</g>
<!-- decl3&#45;&gt;decl2 -->
<g id="edge8" class="edge">
<title>decl3:e&#45;&gt;decl2:name</title>
<path fill="none" stroke="#e56719" d="M500.5,-187.75C566.01,-187.75 532.92,-296.32 586.87,-309.04"/>
<polygon fill="#e56719" stroke="#e56719" points="586.18,-312.48 596.5,-310.09 586.93,-305.52 586.18,-312.48"/>
</g>
</g>
</svg>
