<?xml version="1.0" encoding="UTF-8" standalone="no"?>
<!DOCTYPE svg PUBLIC "-//W3C//DTD SVG 1.1//EN"
 "http://www.w3.org/Graphics/SVG/1.1/DTD/svg11.dtd">
<!-- Generated by graphviz version 12.2.0 (0)
 -->
<!-- Title: G Pages: 1 -->
<svg width="1126pt" height="519pt"
 viewBox="0.00 0.00 1125.75 519.25" xmlns="http://www.w3.org/2000/svg" xmlns:xlink="http://www.w3.org/1999/xlink">
<g id="graph0" class="graph" transform="scale(1 1) rotate(0) translate(4 515.25)">
<title>G</title>
<polygon fill="white" stroke="none" points="-4,4 -4,-515.25 1121.75,-515.25 1121.75,4 -4,4"/>
<!-- decl0 -->
<g id="node1" class="node">
<title>decl0</title>
<polygon fill="none" stroke="black" points="555,-477.75 555,-507.25 798.25,-507.25 798.25,-477.75 555,-477.75"/>
<text text-anchor="start" x="560" y="-488.95" font-family="Times,serif" font-size="14.00">enum MyGame.Sample.Color : int8</text>
<polygon fill="none" stroke="black" points="555,-448.25 555,-477.75 693.12,-477.75 693.12,-448.25 555,-448.25"/>
<text text-anchor="start" x="611.69" y="-459.45" font-family="Times,serif" font-size="14.00">Red</text>
<polygon fill="none" stroke="black" points="693.12,-448.25 693.12,-477.75 798.25,-477.75 798.25,-448.25 693.12,-448.25"/>
<text text-anchor="start" x="741.94" y="-459.45" font-family="Times,serif" font-size="14.00">0</text>
<polygon fill="none" stroke="black" points="555,-418.75 555,-448.25 693.12,-448.25 693.12,-418.75 555,-418.75"/>
<text text-anchor="start" x="603.81" y="-429.95" font-family="Times,serif" font-size="14.00">Green</text>
<polygon fill="none" stroke="black" points="693.12,-418.75 693.12,-448.25 798.25,-448.25 798.25,-418.75 693.12,-418.75"/>
<text text-anchor="start" x="741.94" y="-429.95" font-family="Times,serif" font-size="14.00">1</text>
<polygon fill="none" stroke="black" points="555,-389.25 555,-418.75 693.12,-418.75 693.12,-389.25 555,-389.25"/>
<text text-anchor="start" x="609.06" y="-400.45" font-family="Times,serif" font-size="14.00">Blue</text>
<polygon fill="none" stroke="black" points="693.12,-389.25 693.12,-418.75 798.25,-418.75 798.25,-389.25 693.12,-389.25"/>
<text text-anchor="start" x="741.94" y="-400.45" font-family="Times,serif" font-size="14.00">2</text>
</g>
<!-- decl1 -->
<g id="node2" class="node">
<title>decl1</title>
<polygon fill="none" stroke="black" points="553.75,-122 553.75,-151.5 799.5,-151.5 799.5,-122 553.75,-122"/>
<text text-anchor="start" x="558.88" y="-133.2" font-family="Times,serif" font-size="14.00">union MyGame.Sample.Equipment</text>
<polygon fill="none" stroke="black" points="553.75,-92.5 553.75,-122 618.5,-122 618.5,-92.5 553.75,-92.5"/>
<text text-anchor="start" x="558.75" y="-103.7" font-family="Times,serif" font-size="14.00">Weapon</text>
<polygon fill="none" stroke="black" points="618.5,-92.5 618.5,-122 799.5,-122 799.5,-92.5 618.5,-92.5"/>
<text text-anchor="start" x="623.5" y="-103.7" font-family="Times,serif" font-size="14.00">MyGame.Sample.Weapon</text>
<polygon fill="none" stroke="black" points="553.75,-63 553.75,-92.5 618.5,-92.5 618.5,-63 553.75,-63"/>
<text text-anchor="start" x="565.5" y="-74.2" font-family="Times,serif" font-size="14.00">Shield</text>
<polygon fill="none" stroke="black" points="618.5,-63 618.5,-92.5 799.5,-92.5 799.5,-63 618.5,-63"/>
<text text-anchor="start" x="629.5" y="-74.2" font-family="Times,serif" font-size="14.00">MyGame.Sample.Shield</text>
</g>
<!-- decl4 -->
<g id="node3" class="node">
<title>decl4</title>
<polygon fill="none" stroke="black" points="851.5,-260 851.5,-289.5 1109.75,-289.5 1109.75,-260 851.5,-260"/>
<text text-anchor="start" x="876.38" y="-271.2" font-family="Times,serif" font-size="14.00">table MyGame.Sample.Weapon</text>
<polygon fill="none" stroke="black" points="851.5,-230.5 851.5,-260 869,-260 869,-230.5 851.5,-230.5"/>
<text text-anchor="start" x="856.5" y="-241.7" font-family="Times,serif" font-size="14.00">0</text>
<polygon fill="none" stroke="black" points="869,-230.5 869,-260 932.25,-260 932.25,-230.5 869,-230.5"/>
<text text-anchor="start" x="881.5" y="-241.7" font-family="Times,serif" font-size="14.00">name</text>
<polygon fill="none" stroke="black" points="932.25,-230.5 932.25,-260 1040.5,-260 1040.5,-230.5 932.25,-230.5"/>
<text text-anchor="start" x="937.25" y="-241.7" font-family="Times,serif" font-size="14.00">string (4 bytes)</text>
<polygon fill="none" stroke="black" points="1040.5,-230.5 1040.5,-260 1109.75,-260 1109.75,-230.5 1040.5,-230.5"/>
<text text-anchor="start" x="1047" y="-241.7" font-family="Times,serif" font-size="14.00">optional</text>
<polygon fill="none" stroke="black" points="851.5,-201 851.5,-230.5 869,-230.5 869,-201 851.5,-201"/>
<text text-anchor="start" x="856.5" y="-212.2" font-family="Times,serif" font-size="14.00">1</text>
<polygon fill="none" stroke="black" points="869,-201 869,-230.5 932.25,-230.5 932.25,-201 869,-201"/>
<text text-anchor="start" x="874" y="-212.2" font-family="Times,serif" font-size="14.00">damage</text>
<polygon fill="none" stroke="black" points="932.25,-201 932.25,-230.5 1040.5,-230.5 1040.5,-201 932.25,-201"/>
<text text-anchor="start" x="939.88" y="-212.2" font-family="Times,serif" font-size="14.00">int16 (2 bytes)</text>
<polygon fill="none" stroke="black" points="1040.5,-201 1040.5,-230.5 1109.75,-230.5 1109.75,-201 1040.5,-201"/>
<text text-anchor="start" x="1045.5" y="-212.2" font-family="Times,serif" font-size="14.00">default 0</text>
</g>
<!-- decl1&#45;&gt;decl4 -->
<g id="edge1" class="edge">
<title>decl1:e&#45;&gt;decl4:name</title>
<path fill="none" stroke="#6e4ac9" d="M800.5,-107.25C873.94,-107.25 783.79,-256.93 839.34,-273.3"/>
<polygon fill="#6e4ac9" stroke="#6e4ac9" points="838.63,-276.74 849,-274.56 839.53,-269.8 838.63,-276.74"/>
</g>
<!-- decl5 -->
<g id="node4" class="node">
<title>decl5</title>
<polygon fill="none" stroke="black" points="856.38,-63 856.38,-92.5 1104.88,-92.5 1104.88,-63 856.38,-63"/>
<text text-anchor="start" x="882.38" y="-74.2" font-family="Times,serif" font-size="14.00">table MyGame.Sample.Shield</text>
<polygon fill="none" stroke="black" points="856.38,-33.5 856.38,-63 873.88,-63 873.88,-33.5 856.38,-33.5"/>
<text text-anchor="start" x="861.38" y="-44.7" font-family="Times,serif" font-size="14.00">0</text>
<polygon fill="none" stroke="black" points="873.88,-33.5 873.88,-63 927.38,-63 927.38,-33.5 873.88,-33.5"/>
<text text-anchor="start" x="881.5" y="-44.7" font-family="Times,serif" font-size="14.00">name</text>
<polygon fill="none" stroke="black" points="927.38,-33.5 927.38,-63 1035.62,-63 1035.62,-33.5 927.38,-33.5"/>
<text text-anchor="start" x="932.38" y="-44.7" font-family="Times,serif" font-size="14.00">string (4 bytes)</text>
<polygon fill="none" stroke="black" points="1035.62,-33.5 1035.62,-63 1104.88,-63 1104.88,-33.5 1035.62,-33.5"/>
<text text-anchor="start" x="1042.12" y="-44.7" font-family="Times,serif" font-size="14.00">optional</text>
<polygon fill="none" stroke="black" points="856.38,-4 856.38,-33.5 873.88,-33.5 873.88,-4 856.38,-4"/>
<text text-anchor="start" x="861.38" y="-15.2" font-family="Times,serif" font-size="14.00">1</text>
<polygon fill="none" stroke="black" points="873.88,-4 873.88,-33.5 927.38,-33.5 927.38,-4 873.88,-4"/>
<text text-anchor="start" x="878.88" y="-15.2" font-family="Times,serif" font-size="14.00">armor</text>
<polygon fill="none" stroke="black" points="927.38,-4 927.38,-33.5 1035.62,-33.5 1035.62,-4 927.38,-4"/>
<text text-anchor="start" x="935" y="-15.2" font-family="Times,serif" font-size="14.00">int16 (2 bytes)</text>
<polygon fill="none" stroke="black" points="1035.62,-4 1035.62,-33.5 1104.88,-33.5 1104.88,-4 1035.62,-4"/>
<text text-anchor="start" x="1040.62" y="-15.2" font-family="Times,serif" font-size="14.00">default 0</text>
</g>
<!-- decl1&#45;&gt;decl5 -->
<g id="edge2" class="edge">
<title>decl1:e&#45;&gt;decl5:name</title>
<path fill="none" stroke="#8644c4" d="M800.5,-77.75C820.7,-77.75 828.35,-77.75 844.23,-77.75"/>
<polygon fill="#8644c4" stroke="#8644c4" points="843.86,-81.25 853.86,-77.75 843.86,-74.25 843.86,-81.25"/>
</g>
<!-- decl2 -->
<g id="node5" class="node">
<title>decl2</title>
<polygon fill="none" stroke="black" points="601.25,-295.5 601.25,-325 752,-325 752,-295.5 601.25,-295.5"/>
<text text-anchor="start" x="640.25" y="-306.7" font-family="Times,serif" font-size="14.00">struct Vec3</text>
<polygon fill="none" stroke="black" points="601.25,-266 601.25,-295.5 752,-295.5 752,-266 601.25,-266"/>
<text text-anchor="start" x="606.88" y="-277.2" font-family="Times,serif" font-size="14.00">size=12, alignment=4</text>
<polygon fill="none" stroke="black" points="601.25,-236.5 601.25,-266 618.75,-266 618.75,-236.5 601.25,-236.5"/>
<text text-anchor="start" x="606.25" y="-247.7" font-family="Times,serif" font-size="14.00">0</text>
<polygon fill="none" stroke="black" points="618.75,-236.5 618.75,-266 637,-266 637,-236.5 618.75,-236.5"/>
<text text-anchor="start" x="623.75" y="-247.7" font-family="Times,serif" font-size="14.00">x</text>
<polygon fill="none" stroke="black" points="637,-236.5 637,-266 752,-266 752,-236.5 637,-236.5"/>
<text text-anchor="start" x="642" y="-247.7" font-family="Times,serif" font-size="14.00">float32 (4 bytes)</text>
<polygon fill="none" stroke="black" points="601.25,-207 601.25,-236.5 618.75,-236.5 618.75,-207 601.25,-207"/>
<text text-anchor="start" x="606.25" y="-218.2" font-family="Times,serif" font-size="14.00">4</text>
<polygon fill="none" stroke="black" points="618.75,-207 618.75,-236.5 637,-236.5 637,-207 618.75,-207"/>
<text text-anchor="start" x="623.75" y="-218.2" font-family="Times,serif" font-size="14.00">y</text>
<polygon fill="none" stroke="black" points="637,-207 637,-236.5 752,-236.5 752,-207 637,-207"/>
<text text-anchor="start" x="642" y="-218.2" font-family="Times,serif" font-size="14.00">float32 (4 bytes)</text>
<polygon fill="none" stroke="black" points="601.25,-177.5 601.25,-207 618.75,-207 618.75,-177.5 601.25,-177.5"/>
<text text-anchor="start" x="606.25" y="-188.7" font-family="Times,serif" font-size="14.00">8</text>
<polygon fill="none" stroke="black" points="618.75,-177.5 618.75,-207 637,-207 637,-177.5 618.75,-177.5"/>
<text text-anchor="start" x="624.12" y="-188.7" font-family="Times,serif" font-size="14.00">z</text>
<polygon fill="none" stroke="black" points="637,-177.5 637,-207 752,-207 752,-177.5 637,-177.5"/>
<text text-anchor="start" x="642" y="-188.7" font-family="Times,serif" font-size="14.00">float32 (4 bytes)</text>
</g>
<!-- decl3 -->
<g id="node6" class="node">
<title>decl3</title>
<polygon fill="none" stroke="black" points="8,-468 8,-497.5 501.75,-497.5 501.75,-468 8,-468"/>
<text text-anchor="start" x="149.12" y="-479.2" font-family="Times,serif" font-size="14.00">table MyGame.Sample.Monster</text>
<polygon fill="none" stroke="black" points="8,-438.5 8,-468 59.25,-468 59.25,-438.5 8,-438.5"/>
<text text-anchor="start" x="29.88" y="-449.7" font-family="Times,serif" font-size="14.00">0</text>
<polygon fill="none" stroke="black" points="59.25,-438.5 59.25,-468 138.25,-468 138.25,-438.5 59.25,-438.5"/>
<text text-anchor="start" x="87.5" y="-449.7" font-family="Times,serif" font-size="14.00">pos</text>
<polygon fill="none" stroke="black" points="138.25,-438.5 138.25,-468 410,-468 410,-438.5 138.25,-438.5"/>
<text text-anchor="start" x="225.75" y="-449.7" font-family="Times,serif" font-size="14.00">Vec3 (12 bytes)</text>
<polygon fill="none" stroke="black" points="410,-438.5 410,-468 501.75,-468 501.75,-438.5 410,-438.5"/>
<text text-anchor="start" x="427.75" y="-449.7" font-family="Times,serif" font-size="14.00">optional</text>
<polygon fill="none" stroke="black" points="8,-409 8,-438.5 59.25,-438.5 59.25,-409 8,-409"/>
<text text-anchor="start" x="29.88" y="-420.2" font-family="Times,serif" font-size="14.00">1</text>
<polygon fill="none" stroke="black" points="59.25,-409 59.25,-438.5 138.25,-438.5 138.25,-409 59.25,-409"/>
<text text-anchor="start" x="79.25" y="-420.2" font-family="Times,serif" font-size="14.00">mana</text>
<polygon fill="none" stroke="black" points="138.25,-409 138.25,-438.5 410,-438.5 410,-409 138.25,-409"/>
<text text-anchor="start" x="227.62" y="-420.2" font-family="Times,serif" font-size="14.00">int16 (2 bytes)</text>
<polygon fill="none" stroke="black" points="410,-409 410,-438.5 501.75,-438.5 501.75,-409 410,-409"/>
<text text-anchor="start" x="418.75" y="-420.2" font-family="Times,serif" font-size="14.00">default 150</text>
<polygon fill="none" stroke="black" points="8,-379.5 8,-409 59.25,-409 59.25,-379.5 8,-379.5"/>
<text text-anchor="start" x="29.88" y="-390.7" font-family="Times,serif" font-size="14.00">2</text>
<polygon fill="none" stroke="black" points="59.25,-379.5 59.25,-409 138.25,-409 138.25,-379.5 59.25,-379.5"/>
<text text-anchor="start" x="90.12" y="-390.7" font-family="Times,serif" font-size="14.00">hp</text>
<polygon fill="none" stroke="black" points="138.25,-379.5 138.25,-409 410,-409 410,-379.5 138.25,-379.5"/>
<text text-anchor="start" x="227.62" y="-390.7" font-family="Times,serif" font-size="14.00">int16 (2 bytes)</text>
<polygon fill="none" stroke="black" points="410,-379.5 410,-409 501.75,-409 501.75,-379.5 410,-379.5"/>
<text text-anchor="start" x="418.75" y="-390.7" font-family="Times,serif" font-size="14.00">default 100</text>
<polygon fill="none" stroke="black" points="8,-350 8,-379.5 59.25,-379.5 59.25,-350 8,-350"/>
<text text-anchor="start" x="29.88" y="-361.2" font-family="Times,serif" font-size="14.00">3</text>
<polygon fill="none" stroke="black" points="59.25,-350 59.25,-379.5 138.25,-379.5 138.25,-350 59.25,-350"/>
<text text-anchor="start" x="79.62" y="-361.2" font-family="Times,serif" font-size="14.00">name</text>
<polygon fill="none" stroke="black" points="138.25,-350 138.25,-379.5 410,-379.5 410,-350 138.25,-350"/>
<text text-anchor="start" x="225" y="-361.2" font-family="Times,serif" font-size="14.00">string (4 bytes)</text>
<polygon fill="none" stroke="black" points="410,-350 410,-379.5 501.75,-379.5 501.75,-350 410,-350"/>
<text text-anchor="start" x="427.75" y="-361.2" font-family="Times,serif" font-size="14.00">optional</text>
<polygon fill="none" stroke="black" points="8,-320.5 8,-350 59.25,-350 59.25,-320.5 8,-320.5"/>
<text text-anchor="start" x="29.88" y="-331.7" font-family="Times,serif" font-size="14.00">5</text>
<polygon fill="none" stroke="black" points="59.25,-320.5 59.25,-350 138.25,-350 138.25,-320.5 59.25,-320.5"/>
<text text-anchor="start" x="65.38" y="-331.7" font-family="Times,serif" font-size="14.00">inventory</text>
<polygon fill="none" stroke="black" points="138.25,-320.5 138.25,-350 410,-350 410,-320.5 138.25,-320.5"/>
<text text-anchor="start" x="221.62" y="-331.7" font-family="Times,serif" font-size="14.00">[uint8] (4 bytes)</text>
<polygon fill="none" stroke="black" points="410,-320.5 410,-350 501.75,-350 501.75,-320.5 410,-320.5"/>
<text text-anchor="start" x="427.75" y="-331.7" font-family="Times,serif" font-size="14.00">optional</text>
<polygon fill="none" stroke="black" points="8,-291 8,-320.5 59.25,-320.5 59.25,-291 8,-291"/>
<text text-anchor="start" x="29.88" y="-302.2" font-family="Times,serif" font-size="14.00">6</text>
<polygon fill="none" stroke="black" points="59.25,-291 59.25,-320.5 138.25,-320.5 138.25,-291 59.25,-291"/>
<text text-anchor="start" x="81.5" y="-302.2" font-family="Times,serif" font-size="14.00">color</text>
<polygon fill="none" stroke="black" points="138.25,-291 138.25,-320.5 410,-320.5 410,-291 138.25,-291"/>
<text text-anchor="start" x="168" y="-302.2" font-family="Times,serif" font-size="14.00">MyGame.Sample.Color (1 bytes)</text>
<polygon fill="none" stroke="black" points="410,-291 410,-320.5 501.75,-320.5 501.75,-291 410,-291"/>
<text text-anchor="start" x="415" y="-302.2" font-family="Times,serif" font-size="14.00">default Blue</text>
<polygon fill="none" stroke="black" points="8,-261.5 8,-291 59.25,-291 59.25,-261.5 8,-261.5"/>
<text text-anchor="start" x="29.88" y="-272.7" font-family="Times,serif" font-size="14.00">7</text>
<polygon fill="none" stroke="black" points="59.25,-261.5 59.25,-291 138.25,-291 138.25,-261.5 59.25,-261.5"/>
<text text-anchor="start" x="69.12" y="-272.7" font-family="Times,serif" font-size="14.00">weapons</text>
<polygon fill="none" stroke="black" points="138.25,-261.5 138.25,-291 410,-291 410,-261.5 138.25,-261.5"/>
<text text-anchor="start" x="153.75" y="-272.7" font-family="Times,serif" font-size="14.00">[MyGame.Sample.Weapon] (4 bytes)</text>
<polygon fill="none" stroke="black" points="410,-261.5 410,-291 501.75,-291 501.75,-261.5 410,-261.5"/>
<text text-anchor="start" x="427.75" y="-272.7" font-family="Times,serif" font-size="14.00">optional</text>
<polygon fill="none" stroke="black" points="8,-232 8,-261.5 59.25,-261.5 59.25,-232 8,-232"/>
<text text-anchor="start" x="29.88" y="-243.2" font-family="Times,serif" font-size="14.00">9</text>
<polygon fill="none" stroke="black" points="59.25,-232 59.25,-261.5 138.25,-261.5 138.25,-232 59.25,-232"/>
<text text-anchor="start" x="68" y="-243.2" font-family="Times,serif" font-size="14.00">equipped</text>
<polygon fill="none" stroke="black" points="138.25,-232 138.25,-261.5 410,-261.5 410,-232 138.25,-232"/>
<text text-anchor="start" x="143.25" y="-243.2" font-family="Times,serif" font-size="14.00">[MyGame.Sample.Equipment] (4 bytes)</text>
<polygon fill="none" stroke="black" points="410,-232 410,-261.5 501.75,-261.5 501.75,-232 410,-232"/>
<text text-anchor="start" x="427.75" y="-243.2" font-family="Times,serif" font-size="14.00">optional</text>
<polygon fill="none" stroke="black" points="8,-202.5 8,-232 59.25,-232 59.25,-202.5 8,-202.5"/>
<text text-anchor="start" x="13" y="-213.7" font-family="Times,serif" font-size="14.00">10 / 11</text>
<polygon fill="none" stroke="black" points="59.25,-202.5 59.25,-232 138.25,-232 138.25,-202.5 59.25,-202.5"/>
<text text-anchor="start" x="64.25" y="-213.7" font-family="Times,serif" font-size="14.00">equipped2</text>
<polygon fill="none" stroke="black" points="138.25,-202.5 138.25,-232 410,-232 410,-202.5 138.25,-202.5"/>
<text text-anchor="start" x="148.5" y="-213.7" font-family="Times,serif" font-size="14.00">MyGame.Sample.Equipment (4 bytes)</text>
<polygon fill="none" stroke="black" points="410,-202.5 410,-232 501.75,-232 501.75,-202.5 410,-202.5"/>
<text text-anchor="start" x="427.75" y="-213.7" font-family="Times,serif" font-size="14.00">optional</text>
<polygon fill="none" stroke="black" points="8,-173 8,-202.5 59.25,-202.5 59.25,-173 8,-173"/>
<text text-anchor="start" x="26.12" y="-184.2" font-family="Times,serif" font-size="14.00">12</text>
<polygon fill="none" stroke="black" points="59.25,-173 59.25,-202.5 138.25,-202.5 138.25,-173 59.25,-173"/>
<text text-anchor="start" x="83.38" y="-184.2" font-family="Times,serif" font-size="14.00">path</text>
<polygon fill="none" stroke="black" points="138.25,-173 138.25,-202.5 410,-202.5 410,-173 138.25,-173"/>
<text text-anchor="start" x="224.25" y="-184.2" font-family="Times,serif" font-size="14.00">[Vec3] (4 bytes)</text>
<polygon fill="none" stroke="black" points="410,-173 410,-202.5 501.75,-202.5 501.75,-173 410,-173"/>
<text text-anchor="start" x="427.75" y="-184.2" font-family="Times,serif" font-size="14.00">optional</text>
</g>
<!-- decl3&#45;&gt;decl0 -->
<g id="edge4" class="edge">
<title>decl3:e&#45;&gt;decl0:name</title>
<path fill="none" stroke="#47a3ad" d="M502.75,-305.75C584.62,-305.75 479.24,-474.71 542.82,-491.21"/>
<polygon fill="#47a3ad" stroke="#47a3ad" points="542.16,-494.65 552.5,-492.33 542.96,-487.7 542.16,-494.65"/>
</g>
<!-- decl3&#45;&gt;decl1 -->
<g id="edge6" class="edge">
<title>decl3:e&#45;&gt;decl1:name</title>
<path fill="none" stroke="#053975" d="M502.75,-246.75C552.05,-246.75 507.72,-154.06 541.65,-138.85"/>
<polygon fill="#053975" stroke="#053975" points="542.09,-142.33 551.26,-137.03 540.79,-135.45 542.09,-142.33"/>
</g>
<!-- decl3&#45;&gt;decl1 -->
<g id="edge7" class="edge">
<title>decl3:e&#45;&gt;decl1:name</title>
<path fill="none" stroke="#e5577a" d="M502.75,-217.25C540.43,-217.25 517,-152.84 541.79,-139.25"/>
<polygon fill="#e5577a" stroke="#e5577a" points="542.3,-142.72 551.27,-137.09 540.75,-135.9 542.3,-142.72"/>
</g>
<!-- decl3&#45;&gt;decl4 -->
<g id="edge5" class="edge">
<title>decl3:e&#45;&gt;decl4:name</title>
<path fill="none" stroke="#f20444" d="M502.75,-276.25C536.28,-276.25 516.04,-322.7 545.75,-338.25 597.28,-365.22 756.12,-365.51 807.5,-338.25 833.61,-324.4 821.14,-286.82 839.6,-277.08"/>
<polygon fill="#f20444" stroke="#f20444" points="839.97,-280.58 849.02,-275.07 838.51,-273.73 839.97,-280.58"/>
</g>
<!-- decl3&#45;&gt;decl2 -->
<g id="edge3" class="edge">
<title>decl3:e&#45;&gt;decl2:name</title>
<path fill="none" stroke="#3daf1d" d="M502.75,-453.25C555.24,-453.25 511.95,-383.41 545.75,-343.25 561.27,-324.8 569.35,-313.84 588.89,-311"/>
<polygon fill="#3daf1d" stroke="#3daf1d" points="588.99,-314.5 598.74,-310.35 588.53,-307.51 588.99,-314.5"/>
</g>
<!-- decl3&#45;&gt;decl2 -->
<g id="edge8" class="edge">
<title>decl3:e&#45;&gt;decl2:name</title>
<path fill="none" stroke="#09f7ef" d="M502.75,-187.75C568.26,-187.75 535.17,-296.32 589.12,-309.04"/>
<polygon fill="#09f7ef" stroke="#09f7ef" points="588.43,-312.48 598.75,-310.09 589.18,-305.52 588.43,-312.48"/>
</g>
</g>
</svg>
