<?xml version="1.0" encoding="UTF-8" standalone="no"?>
<!DOCTYPE svg PUBLIC "-//W3C//DTD SVG 1.1//EN"
 "http://www.w3.org/Graphics/SVG/1.1/DTD/svg11.dtd">
<!-- Generated by graphviz version 12.1.1 (0)
 -->
<!-- Title: G Pages: 1 -->
<svg width="949pt" height="451pt"
 viewBox="0.00 0.00 949.00 451.00" xmlns="http://www.w3.org/2000/svg" xmlns:xlink="http://www.w3.org/1999/xlink">
<g id="graph0" class="graph" transform="scale(1 1) rotate(0) translate(4 447)">
<title>G</title>
<polygon fill="white" stroke="none" points="-4,4 -4,-447 945,-447 945,4 -4,4"/>
<!-- decl0 -->
<g id="node1" class="node">
<title>decl0</title>
<polygon fill="none" stroke="black" points="454.5,-354 454.5,-380 662.5,-380 662.5,-354 454.5,-354"/>
<text text-anchor="start" x="459.12" y="-361.7" font-family="Times,serif" font-size="14.00">enum MyGame.Sample.Color : int8</text>
<polygon fill="none" stroke="black" points="454.5,-328 454.5,-354 571.5,-354 571.5,-328 454.5,-328"/>
<text text-anchor="start" x="502.12" y="-335.7" font-family="Times,serif" font-size="14.00">Red</text>
<polygon fill="none" stroke="black" points="571.5,-328 571.5,-354 662.5,-354 662.5,-328 571.5,-328"/>
<text text-anchor="start" x="613.62" y="-335.7" font-family="Times,serif" font-size="14.00">0</text>
<polygon fill="none" stroke="black" points="454.5,-302 454.5,-328 571.5,-328 571.5,-302 454.5,-302"/>
<text text-anchor="start" x="496.5" y="-309.7" font-family="Times,serif" font-size="14.00">Green</text>
<polygon fill="none" stroke="black" points="571.5,-302 571.5,-328 662.5,-328 662.5,-302 571.5,-302"/>
<text text-anchor="start" x="613.62" y="-309.7" font-family="Times,serif" font-size="14.00">1</text>
<polygon fill="none" stroke="black" points="454.5,-276 454.5,-302 571.5,-302 571.5,-276 454.5,-276"/>
<text text-anchor="start" x="500.25" y="-283.7" font-family="Times,serif" font-size="14.00">Blue</text>
<polygon fill="none" stroke="black" points="571.5,-276 571.5,-302 662.5,-302 662.5,-276 571.5,-276"/>
<text text-anchor="start" x="613.62" y="-283.7" font-family="Times,serif" font-size="14.00">2</text>
</g>
<!-- decl1 -->
<g id="node2" class="node">
<title>decl1</title>
<polygon fill="none" stroke="black" points="454,-30 454,-56 663,-56 663,-30 454,-30"/>
<text text-anchor="start" x="460.62" y="-37.7" font-family="Times,serif" font-size="14.00">union MyGame.Sample.Equipment</text>
<polygon fill="none" stroke="black" points="454,-4 454,-30 508,-30 508,-4 454,-4"/>
<text text-anchor="start" x="458.88" y="-11.7" font-family="Times,serif" font-size="14.00">Weapon</text>
<polygon fill="none" stroke="black" points="508,-4 508,-30 663,-30 663,-4 508,-4"/>
<text text-anchor="start" x="512.75" y="-11.7" font-family="Times,serif" font-size="14.00">MyGame.Sample.Weapon</text>
</g>
<!-- decl4 -->
<g id="node3" class="node">
<title>decl4</title>
<polygon fill="none" stroke="black" points="715,-117 715,-143 933,-143 933,-117 715,-117"/>
<text text-anchor="start" x="736.25" y="-124.7" font-family="Times,serif" font-size="14.00">table MyGame.Sample.Weapon</text>
<polygon fill="none" stroke="black" points="715,-91 715,-117 731,-117 731,-91 715,-91"/>
<text text-anchor="start" x="719.62" y="-98.7" font-family="Times,serif" font-size="14.00">0</text>
<polygon fill="none" stroke="black" points="731,-91 731,-117 783,-117 783,-91 731,-91"/>
<text text-anchor="start" x="742" y="-98.7" font-family="Times,serif" font-size="14.00">name</text>
<polygon fill="none" stroke="black" points="783,-91 783,-117 875,-117 875,-91 783,-91"/>
<text text-anchor="start" x="787.75" y="-98.7" font-family="Times,serif" font-size="14.00">string (4 bytes)</text>
<polygon fill="none" stroke="black" points="875,-91 875,-117 933,-117 933,-91 875,-91"/>
<text text-anchor="start" x="881.88" y="-98.7" font-family="Times,serif" font-size="14.00">optional</text>
<polygon fill="none" stroke="black" points="715,-65 715,-91 731,-91 731,-65 715,-65"/>
<text text-anchor="start" x="719.62" y="-72.7" font-family="Times,serif" font-size="14.00">1</text>
<polygon fill="none" stroke="black" points="731,-65 731,-91 783,-91 783,-65 731,-65"/>
<text text-anchor="start" x="735.62" y="-72.7" font-family="Times,serif" font-size="14.00">damage</text>
<polygon fill="none" stroke="black" points="783,-65 783,-91 875,-91 875,-65 783,-65"/>
<text text-anchor="start" x="789.25" y="-72.7" font-family="Times,serif" font-size="14.00">int16 (2 bytes)</text>
<polygon fill="none" stroke="black" points="875,-65 875,-91 933,-91 933,-65 875,-65"/>
<text text-anchor="start" x="880" y="-72.7" font-family="Times,serif" font-size="14.00">default 0</text>
</g>
<!-- decl1&#45;&gt;decl4 -->
<g id="edge1" class="edge">
<title>decl1:e&#45;&gt;decl4:name</title>
<path fill="none" stroke="#f411d2" d="M664,-17C714.63,-17 667.73,-113.03 703.12,-128.04"/>
<polygon fill="#f411d2" stroke="#f411d2" points="702.05,-131.4 712.51,-129.73 703.29,-124.51 702.05,-131.4"/>
</g>
<!-- decl2 -->
<g id="node4" class="node">
<title>decl2</title>
<polygon fill="none" stroke="black" points="492.5,-186 492.5,-212 624.5,-212 624.5,-186 492.5,-186"/>
<text text-anchor="start" x="528.5" y="-193.7" font-family="Times,serif" font-size="14.00">struct Vec3</text>
<polygon fill="none" stroke="black" points="492.5,-160 492.5,-186 624.5,-186 624.5,-160 492.5,-160"/>
<text text-anchor="start" x="498.5" y="-167.7" font-family="Times,serif" font-size="14.00">size=12, alignment=4</text>
<polygon fill="none" stroke="black" points="492.5,-134 492.5,-160 508.5,-160 508.5,-134 492.5,-134"/>
<text text-anchor="start" x="497.12" y="-141.7" font-family="Times,serif" font-size="14.00">0</text>
<polygon fill="none" stroke="black" points="508.5,-134 508.5,-160 524.5,-160 524.5,-134 508.5,-134"/>
<text text-anchor="start" x="513.12" y="-141.7" font-family="Times,serif" font-size="14.00">x</text>
<polygon fill="none" stroke="black" points="524.5,-134 524.5,-160 624.5,-160 624.5,-134 524.5,-134"/>
<text text-anchor="start" x="529.5" y="-141.7" font-family="Times,serif" font-size="14.00">float32 (4 bytes)</text>
<polygon fill="none" stroke="black" points="492.5,-108 492.5,-134 508.5,-134 508.5,-108 492.5,-108"/>
<text text-anchor="start" x="497.12" y="-115.7" font-family="Times,serif" font-size="14.00">4</text>
<polygon fill="none" stroke="black" points="508.5,-108 508.5,-134 524.5,-134 524.5,-108 508.5,-108"/>
<text text-anchor="start" x="513.12" y="-115.7" font-family="Times,serif" font-size="14.00">y</text>
<polygon fill="none" stroke="black" points="524.5,-108 524.5,-134 624.5,-134 624.5,-108 524.5,-108"/>
<text text-anchor="start" x="529.5" y="-115.7" font-family="Times,serif" font-size="14.00">float32 (4 bytes)</text>
<polygon fill="none" stroke="black" points="492.5,-82 492.5,-108 508.5,-108 508.5,-82 492.5,-82"/>
<text text-anchor="start" x="497.12" y="-89.7" font-family="Times,serif" font-size="14.00">8</text>
<polygon fill="none" stroke="black" points="508.5,-82 508.5,-108 524.5,-108 524.5,-82 508.5,-82"/>
<text text-anchor="start" x="513.5" y="-89.7" font-family="Times,serif" font-size="14.00">z</text>
<polygon fill="none" stroke="black" points="524.5,-82 524.5,-108 624.5,-108 624.5,-82 524.5,-82"/>
<text text-anchor="start" x="529.5" y="-89.7" font-family="Times,serif" font-size="14.00">float32 (4 bytes)</text>
</g>
<!-- decl3 -->
<g id="node5" class="node">
<title>decl3</title>
<polygon fill="none" stroke="black" points="8,-413 8,-439 402,-439 402,-413 8,-413"/>
<text text-anchor="start" x="116.5" y="-420.7" font-family="Times,serif" font-size="14.00">table MyGame.Sample.Monster</text>
<polygon fill="none" stroke="black" points="8,-387 8,-413 42,-413 42,-387 8,-387"/>
<text text-anchor="start" x="21.62" y="-394.7" font-family="Times,serif" font-size="14.00">0</text>
<polygon fill="none" stroke="black" points="42,-387 42,-413 103,-413 103,-387 42,-387"/>
<text text-anchor="start" x="63.12" y="-394.7" font-family="Times,serif" font-size="14.00">pos</text>
<polygon fill="none" stroke="black" points="103,-387 103,-413 326,-413 326,-387 103,-387"/>
<text text-anchor="start" x="171.75" y="-394.7" font-family="Times,serif" font-size="14.00">Vec3 (12 bytes)</text>
<polygon fill="none" stroke="black" points="326,-387 326,-413 402,-413 402,-387 326,-387"/>
<text text-anchor="start" x="341.88" y="-394.7" font-family="Times,serif" font-size="14.00">optional</text>
<polygon fill="none" stroke="black" points="8,-361 8,-387 42,-387 42,-361 8,-361"/>
<text text-anchor="start" x="21.62" y="-368.7" font-family="Times,serif" font-size="14.00">1</text>
<polygon fill="none" stroke="black" points="42,-361 42,-387 103,-387 103,-361 42,-361"/>
<text text-anchor="start" x="57.5" y="-368.7" font-family="Times,serif" font-size="14.00">mana</text>
<polygon fill="none" stroke="black" points="103,-361 103,-387 326,-387 326,-361 103,-361"/>
<text text-anchor="start" x="174.75" y="-368.7" font-family="Times,serif" font-size="14.00">int16 (2 bytes)</text>
<polygon fill="none" stroke="black" points="326,-361 326,-387 402,-387 402,-361 326,-361"/>
<text text-anchor="start" x="333.25" y="-368.7" font-family="Times,serif" font-size="14.00">default 150</text>
<polygon fill="none" stroke="black" points="8,-335 8,-361 42,-361 42,-335 8,-335"/>
<text text-anchor="start" x="21.62" y="-342.7" font-family="Times,serif" font-size="14.00">2</text>
<polygon fill="none" stroke="black" points="42,-335 42,-361 103,-361 103,-335 42,-335"/>
<text text-anchor="start" x="65.75" y="-342.7" font-family="Times,serif" font-size="14.00">hp</text>
<polygon fill="none" stroke="black" points="103,-335 103,-361 326,-361 326,-335 103,-335"/>
<text text-anchor="start" x="174.75" y="-342.7" font-family="Times,serif" font-size="14.00">int16 (2 bytes)</text>
<polygon fill="none" stroke="black" points="326,-335 326,-361 402,-361 402,-335 326,-335"/>
<text text-anchor="start" x="333.25" y="-342.7" font-family="Times,serif" font-size="14.00">default 100</text>
<polygon fill="none" stroke="black" points="8,-309 8,-335 42,-335 42,-309 8,-309"/>
<text text-anchor="start" x="21.62" y="-316.7" font-family="Times,serif" font-size="14.00">3</text>
<polygon fill="none" stroke="black" points="42,-309 42,-335 103,-335 103,-309 42,-309"/>
<text text-anchor="start" x="57.5" y="-316.7" font-family="Times,serif" font-size="14.00">name</text>
<polygon fill="none" stroke="black" points="103,-309 103,-335 326,-335 326,-309 103,-309"/>
<text text-anchor="start" x="173.25" y="-316.7" font-family="Times,serif" font-size="14.00">string (4 bytes)</text>
<polygon fill="none" stroke="black" points="326,-309 326,-335 402,-335 402,-309 326,-309"/>
<text text-anchor="start" x="341.88" y="-316.7" font-family="Times,serif" font-size="14.00">optional</text>
<polygon fill="none" stroke="black" points="8,-283 8,-309 42,-309 42,-283 8,-283"/>
<text text-anchor="start" x="21.62" y="-290.7" font-family="Times,serif" font-size="14.00">5</text>
<polygon fill="none" stroke="black" points="42,-283 42,-309 103,-309 103,-283 42,-283"/>
<text text-anchor="start" x="46.62" y="-290.7" font-family="Times,serif" font-size="14.00">inventory</text>
<polygon fill="none" stroke="black" points="103,-283 103,-309 326,-309 326,-283 103,-283"/>
<text text-anchor="start" x="170.25" y="-290.7" font-family="Times,serif" font-size="14.00">[uint8] (4 bytes)</text>
<polygon fill="none" stroke="black" points="326,-283 326,-309 402,-309 402,-283 326,-283"/>
<text text-anchor="start" x="341.88" y="-290.7" font-family="Times,serif" font-size="14.00">optional</text>
<polygon fill="none" stroke="black" points="8,-257 8,-283 42,-283 42,-257 8,-257"/>
<text text-anchor="start" x="21.62" y="-264.7" font-family="Times,serif" font-size="14.00">6</text>
<polygon fill="none" stroke="black" points="42,-257 42,-283 103,-283 103,-257 42,-257"/>
<text text-anchor="start" x="58.62" y="-264.7" font-family="Times,serif" font-size="14.00">color</text>
<polygon fill="none" stroke="black" points="103,-257 103,-283 326,-283 326,-257 103,-257"/>
<text text-anchor="start" x="122.62" y="-264.7" font-family="Times,serif" font-size="14.00">MyGame.Sample.Color (1 bytes)</text>
<polygon fill="none" stroke="black" points="326,-257 326,-283 402,-283 402,-257 326,-257"/>
<text text-anchor="start" x="330.62" y="-264.7" font-family="Times,serif" font-size="14.00">default Blue</text>
<polygon fill="none" stroke="black" points="8,-231 8,-257 42,-257 42,-231 8,-231"/>
<text text-anchor="start" x="21.62" y="-238.7" font-family="Times,serif" font-size="14.00">7</text>
<polygon fill="none" stroke="black" points="42,-231 42,-257 103,-257 103,-231 42,-231"/>
<text text-anchor="start" x="48.88" y="-238.7" font-family="Times,serif" font-size="14.00">weapons</text>
<polygon fill="none" stroke="black" points="103,-231 103,-257 326,-257 326,-231 103,-231"/>
<text text-anchor="start" x="111.38" y="-238.7" font-family="Times,serif" font-size="14.00">[MyGame.Sample.Weapon] (4 bytes)</text>
<polygon fill="none" stroke="black" points="326,-231 326,-257 402,-257 402,-231 326,-231"/>
<text text-anchor="start" x="341.88" y="-238.7" font-family="Times,serif" font-size="14.00">optional</text>
<polygon fill="none" stroke="black" points="8,-205 8,-231 42,-231 42,-205 8,-205"/>
<text text-anchor="start" x="12.62" y="-212.7" font-family="Times,serif" font-size="14.00">8 / 9</text>
<polygon fill="none" stroke="black" points="42,-205 42,-231 103,-231 103,-205 42,-205"/>
<text text-anchor="start" x="47.75" y="-212.7" font-family="Times,serif" font-size="14.00">equipped</text>
<polygon fill="none" stroke="black" points="103,-205 103,-231 326,-231 326,-205 103,-205"/>
<text text-anchor="start" x="108" y="-212.7" font-family="Times,serif" font-size="14.00">MyGame.Sample.Equipment (4 bytes)</text>
<polygon fill="none" stroke="black" points="326,-205 326,-231 402,-231 402,-205 326,-205"/>
<text text-anchor="start" x="341.88" y="-212.7" font-family="Times,serif" font-size="14.00">optional</text>
<polygon fill="none" stroke="black" points="8,-179 8,-205 42,-205 42,-179 8,-179"/>
<text text-anchor="start" x="18.25" y="-186.7" font-family="Times,serif" font-size="14.00">10</text>
<polygon fill="none" stroke="black" points="42,-179 42,-205 103,-205 103,-179 42,-179"/>
<text text-anchor="start" x="60.88" y="-186.7" font-family="Times,serif" font-size="14.00">path</text>
<polygon fill="none" stroke="black" points="103,-179 103,-205 326,-205 326,-179 103,-179"/>
<text text-anchor="start" x="170.62" y="-186.7" font-family="Times,serif" font-size="14.00">[Vec3] (4 bytes)</text>
<polygon fill="none" stroke="black" points="326,-179 326,-205 402,-205 402,-179 326,-179"/>
<text text-anchor="start" x="341.88" y="-186.7" font-family="Times,serif" font-size="14.00">optional</text>
</g>
<!-- decl3&#45;&gt;decl0 -->
<g id="edge3" class="edge">
<title>decl3:e&#45;&gt;decl0:name</title>
<path fill="none" stroke="#d8755f" d="M403,-270C447.24,-270 412.52,-350.35 442.57,-364.79"/>
<polygon fill="#d8755f" stroke="#d8755f" points="441.52,-368.15 452.02,-366.7 442.91,-361.29 441.52,-368.15"/>
</g>
<!-- decl3&#45;&gt;decl1 -->
<g id="edge5" class="edge">
<title>decl3:e&#45;&gt;decl1:name</title>
<path fill="none" stroke="#ba982a" d="M403,-218C479.62,-218 383.36,-60.97 441.75,-44.41"/>
<polygon fill="#ba982a" stroke="#ba982a" points="442.01,-47.9 451.5,-43.19 441.14,-40.96 442.01,-47.9"/>
</g>
<!-- decl3&#45;&gt;decl4 -->
<g id="edge4" class="edge">
<title>decl3:e&#45;&gt;decl4:name</title>
<path fill="none" stroke="#fc0213" d="M403,-244C522.41,-244 573.01,-293.24 671,-225 705.32,-201.1 674.98,-142.98 702.78,-131.86"/>
<polygon fill="#fc0213" stroke="#fc0213" points="703.21,-135.33 712.51,-130.25 702.07,-128.43 703.21,-135.33"/>
</g>
<!-- decl3&#45;&gt;decl2 -->
<g id="edge2" class="edge">
<title>decl3:e&#45;&gt;decl2:name</title>
<path fill="none" stroke="#0804f7" d="M403,-400C480.94,-400 401.34,-293.87 446,-230 457.61,-213.39 464.41,-203.03 480.31,-199.96"/>
<polygon fill="#0804f7" stroke="#0804f7" points="480.33,-203.47 489.99,-199.13 479.73,-196.5 480.33,-203.47"/>
</g>
<!-- decl3&#45;&gt;decl2 -->
<g id="edge6" class="edge">
<title>decl3:e&#45;&gt;decl2:name</title>
<path fill="none" stroke="#66db23" d="M403,-192C438.45,-192 449.79,-197.65 480.34,-198.8"/>
<polygon fill="#66db23" stroke="#66db23" points="479.92,-202.29 489.99,-198.97 480.05,-195.29 479.92,-202.29"/>
</g>
</g>
</svg>
