<?xml version="1.0" encoding="UTF-8" standalone="no"?>
<!DOCTYPE svg PUBLIC "-//W3C//DTD SVG 1.1//EN"
 "http://www.w3.org/Graphics/SVG/1.1/DTD/svg11.dtd">
<!-- Generated by graphviz version 2.49.3 (0)
 -->
<!-- Title: G Pages: 1 -->
<svg width="1105pt" height="438pt"
 viewBox="0.00 0.00 1105.00 438.00" xmlns="http://www.w3.org/2000/svg" xmlns:xlink="http://www.w3.org/1999/xlink">
<g id="graph0" class="graph" transform="scale(1 1) rotate(0) translate(4 434)">
<title>G</title>
<polygon fill="white" stroke="transparent" points="-4,4 -4,-434 1101,-434 1101,4 -4,4"/>
<!-- decl0 -->
<g id="node1" class="node">
<title>decl0</title>
<polygon fill="none" stroke="black" points="530,-345 530,-370 775,-370 775,-345 530,-345"/>
<text text-anchor="start" x="535" y="-353.8" font-family="Times,serif" font-size="14.00">enum MyGame.Sample.Color : int8</text>
<polygon fill="none" stroke="black" points="530,-320 530,-345 669,-345 669,-320 530,-320"/>
<text text-anchor="start" x="587" y="-328.8" font-family="Times,serif" font-size="14.00">Red</text>
<polygon fill="none" stroke="black" points="669,-320 669,-345 775,-345 775,-320 669,-320"/>
<text text-anchor="start" x="718" y="-328.8" font-family="Times,serif" font-size="14.00">0</text>
<polygon fill="none" stroke="black" points="530,-295 530,-320 669,-320 669,-295 530,-295"/>
<text text-anchor="start" x="579" y="-303.8" font-family="Times,serif" font-size="14.00">Green</text>
<polygon fill="none" stroke="black" points="669,-295 669,-320 775,-320 775,-295 669,-295"/>
<text text-anchor="start" x="718" y="-303.8" font-family="Times,serif" font-size="14.00">1</text>
<polygon fill="none" stroke="black" points="530,-270 530,-295 669,-295 669,-270 530,-270"/>
<text text-anchor="start" x="584" y="-278.8" font-family="Times,serif" font-size="14.00">Blue</text>
<polygon fill="none" stroke="black" points="669,-270 669,-295 775,-295 775,-270 669,-270"/>
<text text-anchor="start" x="718" y="-278.8" font-family="Times,serif" font-size="14.00">2</text>
</g>
<!-- decl1 -->
<g id="node2" class="node">
<title>decl1</title>
<polygon fill="none" stroke="black" points="528,-29 528,-54 776,-54 776,-29 528,-29"/>
<text text-anchor="start" x="534" y="-37.8" font-family="Times,serif" font-size="14.00">union MyGame.Sample.Equipment</text>
<polygon fill="none" stroke="black" points="528,-4 528,-29 594,-29 594,-4 528,-4"/>
<text text-anchor="start" x="533" y="-12.8" font-family="Times,serif" font-size="14.00">Weapon</text>
<polygon fill="none" stroke="black" points="594,-4 594,-29 776,-29 776,-4 594,-4"/>
<text text-anchor="start" x="599" y="-12.8" font-family="Times,serif" font-size="14.00">MyGame.Sample.Weapon</text>
</g>
<!-- decl4 -->
<g id="node3" class="node">
<title>decl4</title>
<polygon fill="none" stroke="black" points="828.5,-114 828.5,-139 1089.5,-139 1089.5,-114 828.5,-114"/>
<text text-anchor="start" x="854" y="-122.8" font-family="Times,serif" font-size="14.00">table MyGame.Sample.Weapon</text>
<polygon fill="none" stroke="black" points="828.5,-89 828.5,-114 846.5,-114 846.5,-89 828.5,-89"/>
<text text-anchor="start" x="833.5" y="-97.8" font-family="Times,serif" font-size="14.00">0</text>
<polygon fill="none" stroke="black" points="846.5,-89 846.5,-114 910.5,-114 910.5,-89 846.5,-89"/>
<text text-anchor="start" x="859" y="-97.8" font-family="Times,serif" font-size="14.00">name</text>
<polygon fill="none" stroke="black" points="910.5,-89 910.5,-114 1019.5,-114 1019.5,-89 910.5,-89"/>
<text text-anchor="start" x="915.5" y="-97.8" font-family="Times,serif" font-size="14.00">string (4 bytes)</text>
<polygon fill="none" stroke="black" points="1019.5,-89 1019.5,-114 1089.5,-114 1089.5,-89 1019.5,-89"/>
<text text-anchor="start" x="1026" y="-97.8" font-family="Times,serif" font-size="14.00">optional</text>
<polygon fill="none" stroke="black" points="828.5,-64 828.5,-89 846.5,-89 846.5,-64 828.5,-64"/>
<text text-anchor="start" x="833.5" y="-72.8" font-family="Times,serif" font-size="14.00">1</text>
<polygon fill="none" stroke="black" points="846.5,-64 846.5,-89 910.5,-89 910.5,-64 846.5,-64"/>
<text text-anchor="start" x="851.5" y="-72.8" font-family="Times,serif" font-size="14.00">damage</text>
<polygon fill="none" stroke="black" points="910.5,-64 910.5,-89 1019.5,-89 1019.5,-64 910.5,-64"/>
<text text-anchor="start" x="918" y="-72.8" font-family="Times,serif" font-size="14.00">int16 (2 bytes)</text>
<polygon fill="none" stroke="black" points="1019.5,-64 1019.5,-89 1089.5,-89 1089.5,-64 1019.5,-64"/>
<text text-anchor="start" x="1024.5" y="-72.8" font-family="Times,serif" font-size="14.00">default 0</text>
</g>
<!-- decl1&#45;&gt;decl4 -->
<g id="edge1" class="edge">
<title>decl1:e&#45;&gt;decl4:name</title>
<path fill="none" stroke="#f411d2" d="M777,-16C827.18,-16 781.28,-111.13 817.19,-125.26"/>
<polygon fill="#f411d2" stroke="#f411d2" points="817.06,-128.78 827.5,-127 818.22,-121.88 817.06,-128.78"/>
</g>
<!-- decl2 -->
<g id="node4" class="node">
<title>decl2</title>
<polygon fill="none" stroke="black" points="576,-180 576,-205 729,-205 729,-180 576,-180"/>
<text text-anchor="start" x="615.5" y="-188.8" font-family="Times,serif" font-size="14.00">struct Vec3</text>
<polygon fill="none" stroke="black" points="576,-155 576,-180 729,-180 729,-155 576,-155"/>
<text text-anchor="start" x="582.5" y="-163.8" font-family="Times,serif" font-size="14.00">size=12, alignment=4</text>
<polygon fill="none" stroke="black" points="576,-130 576,-155 594,-155 594,-130 576,-130"/>
<text text-anchor="start" x="581" y="-138.8" font-family="Times,serif" font-size="14.00">0</text>
<polygon fill="none" stroke="black" points="594,-130 594,-155 613,-155 613,-130 594,-130"/>
<text text-anchor="start" x="599" y="-138.8" font-family="Times,serif" font-size="14.00">x</text>
<polygon fill="none" stroke="black" points="613,-130 613,-155 729,-155 729,-130 613,-130"/>
<text text-anchor="start" x="618" y="-138.8" font-family="Times,serif" font-size="14.00">float32 (4 bytes)</text>
<polygon fill="none" stroke="black" points="576,-105 576,-130 594,-130 594,-105 576,-105"/>
<text text-anchor="start" x="581" y="-113.8" font-family="Times,serif" font-size="14.00">4</text>
<polygon fill="none" stroke="black" points="594,-105 594,-130 613,-130 613,-105 594,-105"/>
<text text-anchor="start" x="599" y="-113.8" font-family="Times,serif" font-size="14.00">y</text>
<polygon fill="none" stroke="black" points="613,-105 613,-130 729,-130 729,-105 613,-105"/>
<text text-anchor="start" x="618" y="-113.8" font-family="Times,serif" font-size="14.00">float32 (4 bytes)</text>
<polygon fill="none" stroke="black" points="576,-80 576,-105 594,-105 594,-80 576,-80"/>
<text text-anchor="start" x="581" y="-88.8" font-family="Times,serif" font-size="14.00">8</text>
<polygon fill="none" stroke="black" points="594,-80 594,-105 613,-105 613,-80 594,-80"/>
<text text-anchor="start" x="599.5" y="-88.8" font-family="Times,serif" font-size="14.00">z</text>
<polygon fill="none" stroke="black" points="613,-80 613,-105 729,-105 729,-80 613,-80"/>
<text text-anchor="start" x="618" y="-88.8" font-family="Times,serif" font-size="14.00">float32 (4 bytes)</text>
</g>
<!-- decl3 -->
<g id="node5" class="node">
<title>decl3</title>
<polygon fill="none" stroke="black" points="8,-401 8,-426 476,-426 476,-401 8,-401"/>
<text text-anchor="start" x="136" y="-409.8" font-family="Times,serif" font-size="14.00">table MyGame.Sample.Monster</text>
<polygon fill="none" stroke="black" points="8,-376 8,-401 45,-401 45,-376 8,-376"/>
<text text-anchor="start" x="22.5" y="-384.8" font-family="Times,serif" font-size="14.00">0</text>
<polygon fill="none" stroke="black" points="45,-376 45,-401 122,-401 122,-376 45,-376"/>
<text text-anchor="start" x="72" y="-384.8" font-family="Times,serif" font-size="14.00">pos</text>
<polygon fill="none" stroke="black" points="122,-376 122,-401 384,-401 384,-376 122,-376"/>
<text text-anchor="start" x="204" y="-384.8" font-family="Times,serif" font-size="14.00">Vec3 (12 bytes)</text>
<polygon fill="none" stroke="black" points="384,-376 384,-401 476,-401 476,-376 384,-376"/>
<text text-anchor="start" x="401.5" y="-384.8" font-family="Times,serif" font-size="14.00">optional</text>
<polygon fill="none" stroke="black" points="8,-351 8,-376 45,-376 45,-351 8,-351"/>
<text text-anchor="start" x="22.5" y="-359.8" font-family="Times,serif" font-size="14.00">1</text>
<polygon fill="none" stroke="black" points="45,-351 45,-376 122,-376 122,-351 45,-351"/>
<text text-anchor="start" x="63.5" y="-359.8" font-family="Times,serif" font-size="14.00">mana</text>
<polygon fill="none" stroke="black" points="122,-351 122,-376 384,-376 384,-351 122,-351"/>
<text text-anchor="start" x="206" y="-359.8" font-family="Times,serif" font-size="14.00">int16 (2 bytes)</text>
<polygon fill="none" stroke="black" points="384,-351 384,-376 476,-376 476,-351 384,-351"/>
<text text-anchor="start" x="392.5" y="-359.8" font-family="Times,serif" font-size="14.00">default 150</text>
<polygon fill="none" stroke="black" points="8,-326 8,-351 45,-351 45,-326 8,-326"/>
<text text-anchor="start" x="22.5" y="-334.8" font-family="Times,serif" font-size="14.00">2</text>
<polygon fill="none" stroke="black" points="45,-326 45,-351 122,-351 122,-326 45,-326"/>
<text text-anchor="start" x="74.5" y="-334.8" font-family="Times,serif" font-size="14.00">hp</text>
<polygon fill="none" stroke="black" points="122,-326 122,-351 384,-351 384,-326 122,-326"/>
<text text-anchor="start" x="206" y="-334.8" font-family="Times,serif" font-size="14.00">int16 (2 bytes)</text>
<polygon fill="none" stroke="black" points="384,-326 384,-351 476,-351 476,-326 384,-326"/>
<text text-anchor="start" x="392.5" y="-334.8" font-family="Times,serif" font-size="14.00">default 100</text>
<polygon fill="none" stroke="black" points="8,-301 8,-326 45,-326 45,-301 8,-301"/>
<text text-anchor="start" x="22.5" y="-309.8" font-family="Times,serif" font-size="14.00">3</text>
<polygon fill="none" stroke="black" points="45,-301 45,-326 122,-326 122,-301 45,-301"/>
<text text-anchor="start" x="64" y="-309.8" font-family="Times,serif" font-size="14.00">name</text>
<polygon fill="none" stroke="black" points="122,-301 122,-326 384,-326 384,-301 122,-301"/>
<text text-anchor="start" x="203.5" y="-309.8" font-family="Times,serif" font-size="14.00">string (4 bytes)</text>
<polygon fill="none" stroke="black" points="384,-301 384,-326 476,-326 476,-301 384,-301"/>
<text text-anchor="start" x="401.5" y="-309.8" font-family="Times,serif" font-size="14.00">optional</text>
<polygon fill="none" stroke="black" points="8,-276 8,-301 45,-301 45,-276 8,-276"/>
<text text-anchor="start" x="22.5" y="-284.8" font-family="Times,serif" font-size="14.00">5</text>
<polygon fill="none" stroke="black" points="45,-276 45,-301 122,-301 122,-276 45,-276"/>
<text text-anchor="start" x="50" y="-284.8" font-family="Times,serif" font-size="14.00">inventory</text>
<polygon fill="none" stroke="black" points="122,-276 122,-301 384,-301 384,-276 122,-276"/>
<text text-anchor="start" x="200" y="-284.8" font-family="Times,serif" font-size="14.00">[uint8] (4 bytes)</text>
<polygon fill="none" stroke="black" points="384,-276 384,-301 476,-301 476,-276 384,-276"/>
<text text-anchor="start" x="401.5" y="-284.8" font-family="Times,serif" font-size="14.00">optional</text>
<polygon fill="none" stroke="black" points="8,-251 8,-276 45,-276 45,-251 8,-251"/>
<text text-anchor="start" x="22.5" y="-259.8" font-family="Times,serif" font-size="14.00">6</text>
<polygon fill="none" stroke="black" points="45,-251 45,-276 122,-276 122,-251 45,-251"/>
<text text-anchor="start" x="66" y="-259.8" font-family="Times,serif" font-size="14.00">color</text>
<polygon fill="none" stroke="black" points="122,-251 122,-276 384,-276 384,-251 122,-251"/>
<text text-anchor="start" x="146" y="-259.8" font-family="Times,serif" font-size="14.00">MyGame.Sample.Color (1 bytes)</text>
<polygon fill="none" stroke="black" points="384,-251 384,-276 476,-276 476,-251 384,-251"/>
<text text-anchor="start" x="389" y="-259.8" font-family="Times,serif" font-size="14.00">default Blue</text>
<polygon fill="none" stroke="black" points="8,-226 8,-251 45,-251 45,-226 8,-226"/>
<text text-anchor="start" x="22.5" y="-234.8" font-family="Times,serif" font-size="14.00">7</text>
<polygon fill="none" stroke="black" points="45,-226 45,-251 122,-251 122,-226 45,-226"/>
<text text-anchor="start" x="53.5" y="-234.8" font-family="Times,serif" font-size="14.00">weapons</text>
<polygon fill="none" stroke="black" points="122,-226 122,-251 384,-251 384,-226 122,-226"/>
<text text-anchor="start" x="132" y="-234.8" font-family="Times,serif" font-size="14.00">[MyGame.Sample.Weapon] (4 bytes)</text>
<polygon fill="none" stroke="black" points="384,-226 384,-251 476,-251 476,-226 384,-226"/>
<text text-anchor="start" x="401.5" y="-234.8" font-family="Times,serif" font-size="14.00">optional</text>
<polygon fill="none" stroke="black" points="8,-201 8,-226 45,-226 45,-201 8,-201"/>
<text text-anchor="start" x="13" y="-209.8" font-family="Times,serif" font-size="14.00">8 / 9</text>
<polygon fill="none" stroke="black" points="45,-201 45,-226 122,-226 122,-201 45,-201"/>
<text text-anchor="start" x="52.5" y="-209.8" font-family="Times,serif" font-size="14.00">equipped</text>
<polygon fill="none" stroke="black" points="122,-201 122,-226 384,-226 384,-201 122,-201"/>
<text text-anchor="start" x="127" y="-209.8" font-family="Times,serif" font-size="14.00">MyGame.Sample.Equipment (4 bytes)</text>
<polygon fill="none" stroke="black" points="384,-201 384,-226 476,-226 476,-201 384,-201"/>
<text text-anchor="start" x="401.5" y="-209.8" font-family="Times,serif" font-size="14.00">optional</text>
<polygon fill="none" stroke="black" points="8,-176 8,-201 45,-201 45,-176 8,-176"/>
<text text-anchor="start" x="18.5" y="-184.8" font-family="Times,serif" font-size="14.00">10</text>
<polygon fill="none" stroke="black" points="45,-176 45,-201 122,-201 122,-176 45,-176"/>
<text text-anchor="start" x="68" y="-184.8" font-family="Times,serif" font-size="14.00">path</text>
<polygon fill="none" stroke="black" points="122,-176 122,-201 384,-201 384,-176 122,-176"/>
<text text-anchor="start" x="202.5" y="-184.8" font-family="Times,serif" font-size="14.00">[Vec3] (4 bytes)</text>
<polygon fill="none" stroke="black" points="384,-176 384,-201 476,-201 476,-176 384,-176"/>
<text text-anchor="start" x="401.5" y="-184.8" font-family="Times,serif" font-size="14.00">optional</text>
</g>
<!-- decl3&#45;&gt;decl0 -->
<g id="edge3" class="edge">
<title>decl3:e&#45;&gt;decl0:name</title>
<path fill="none" stroke="#d8755f" d="M477,-263C521.19,-263 487.51,-343.05 518.92,-356.19"/>
<polygon fill="#d8755f" stroke="#d8755f" points="518.54,-359.67 529,-358 519.78,-352.79 518.54,-359.67"/>
</g>
<!-- decl3&#45;&gt;decl1 -->
<g id="edge5" class="edge">
<title>decl3:e&#45;&gt;decl1:name</title>
<path fill="none" stroke="#ba982a" d="M477,-213C552.32,-213 457.95,-58.29 516.7,-43.18"/>
<polygon fill="#ba982a" stroke="#ba982a" points="517.46,-46.62 527,-42 516.67,-39.66 517.46,-46.62"/>
</g>
<!-- decl3&#45;&gt;decl4 -->
<g id="edge4" class="edge">
<title>decl3:e&#45;&gt;decl4:name</title>
<path fill="none" stroke="#fc0213" d="M477,-238C545.35,-238 727.41,-257.34 784,-219 818.08,-195.91 788.69,-138.64 817.24,-128.54"/>
<polygon fill="#fc0213" stroke="#fc0213" points="818.13,-131.94 827.5,-127 817.09,-125.02 818.13,-131.94"/>
</g>
<!-- decl3&#45;&gt;decl2 -->
<g id="edge2" class="edge">
<title>decl3:e&#45;&gt;decl2:name</title>
<path fill="none" stroke="#0804f7" d="M477,-389C552.78,-389 473.76,-284.04 520,-224 534.91,-204.63 544.29,-195.48 565,-193.45"/>
<polygon fill="#0804f7" stroke="#0804f7" points="565.17,-196.94 575,-193 564.85,-189.95 565.17,-196.94"/>
</g>
<!-- decl3&#45;&gt;decl2 -->
<g id="edge6" class="edge">
<title>decl3:e&#45;&gt;decl2:name</title>
<path fill="none" stroke="#66db23" d="M477,-188C517.03,-188 529.4,-192.21 564.89,-192.9"/>
<polygon fill="#66db23" stroke="#66db23" points="564.97,-196.41 575,-193 565.03,-189.41 564.97,-196.41"/>
</g>
</g>
</svg>
